<svg width="20" height="21" viewBox="0 0 20 21" fill="none" xmlns="http://www.w3.org/2000/svg">
<path d="M10 0.615234C8.02219 0.615234 6.08879 1.20172 4.4443 2.30054C2.79981 3.39935 1.51809 4.96114 0.761209 6.7884C0.00433281 8.61566 -0.1937 10.6263 0.192152 12.5661C0.578004 14.5059 1.53041 16.2878 2.92894 17.6863C4.32746 19.0848 6.10929 20.0372 8.0491 20.4231C9.98891 20.8089 11.9996 20.6109 13.8268 19.854C15.6541 19.0972 17.2159 17.8154 18.3147 16.1709C19.4135 14.5264 20 12.593 20 10.6152C20 7.96307 18.9464 5.41953 17.0711 3.54417C15.1957 1.6688 12.6522 0.615234 10 0.615234ZM14.7813 14.109C14.1563 15.984 12.525 16.509 11.0938 16.609V17.859C11.0938 18.0662 11.0114 18.2649 10.8649 18.4114C10.7184 18.5579 10.5197 18.6402 10.3125 18.6402C10.1053 18.6402 9.90659 18.5579 9.76008 18.4114C9.61356 18.2649 9.53125 18.0662 9.53125 17.859V16.609C8.09603 16.4744 6.73472 15.9103 5.625 14.9902C5.5499 14.9201 5.48936 14.8358 5.44683 14.7422C5.40431 14.6486 5.38062 14.5476 5.37714 14.4449C5.37366 14.3421 5.39044 14.2397 5.42654 14.1435C5.46263 14.0473 5.51733 13.9591 5.5875 13.884C5.65768 13.8089 5.74196 13.7483 5.83553 13.7058C5.9291 13.6633 6.03014 13.6396 6.13286 13.6361C6.23559 13.6326 6.33799 13.6494 6.43423 13.6855C6.53047 13.7216 6.61865 13.7763 6.69375 13.8465C7.51154 14.5055 8.49582 14.9251 9.5375 15.059V11.134C8.7073 11.0066 7.91309 10.7064 7.20625 10.2527C6.61186 9.87995 6.16693 9.31063 5.94883 8.64377C5.73073 7.97691 5.75326 7.2547 6.0125 6.60273C6.38125 5.65898 7.525 4.58398 9.5375 4.40898V3.27148C9.5375 3.06428 9.61981 2.86557 9.76632 2.71906C9.91284 2.57254 10.1116 2.49023 10.3188 2.49023C10.526 2.49023 10.7247 2.57254 10.8712 2.71906C11.0177 2.86557 11.1 3.06428 11.1 3.27148V4.43398C12.2172 4.55775 13.2778 4.99063 14.1625 5.68398C14.2851 5.82826 14.3512 6.01216 14.3484 6.20148C14.3456 6.39081 14.2741 6.57267 14.1473 6.71326C14.0205 6.85385 13.8469 6.94359 13.6588 6.9658C13.4708 6.988 13.2811 6.94116 13.125 6.83398C12.5282 6.39753 11.8324 6.11619 11.1 6.01523V9.84648C11.475 9.92773 11.875 10.0152 12.2938 10.1465C12.7781 10.2673 13.2326 10.4859 13.6293 10.7891C14.0259 11.0922 14.3563 11.4733 14.6 11.909C14.9481 12.5897 15.0132 13.3804 14.7813 14.109Z" fill="#C4A484"/>
<path d="M11.825 11.6406C11.575 11.5656 11.3312 11.5031 11.0938 11.4531V15.0531C12.3437 14.9281 13.0125 14.4906 13.3 13.6156C13.3958 13.2865 13.3623 12.9333 13.2062 12.6281C13.0535 12.3798 12.8525 12.1645 12.6153 11.9949C12.3781 11.8253 12.1094 11.7049 11.825 11.6406Z" fill="#C4A484"/>
<path d="M7.4638 7.16523C7.33338 7.48924 7.32484 7.84955 7.43976 8.17937C7.55469 8.50919 7.78528 8.78617 8.0888 8.95898C8.53045 9.24251 9.02286 9.43778 9.5388 9.53398V5.95898C8.2263 6.11523 7.62005 6.76523 7.4638 7.16523Z" fill="#C4A484"/>
</svg>
