<svg width="16" height="14" viewBox="0 0 16 14" fill="none" xmlns="http://www.w3.org/2000/svg">
<path d="M5.75 5.41211C5.75 5.47841 5.72366 5.542 5.67678 5.58889C5.62989 5.63577 5.5663 5.66211 5.5 5.66211C5.4337 5.66211 5.37011 5.63577 5.32322 5.58889C5.27634 5.542 5.25 5.47841 5.25 5.41211C5.25 5.34581 5.27634 5.28222 5.32322 5.23533C5.37011 5.18845 5.4337 5.16211 5.5 5.16211C5.5663 5.16211 5.62989 5.18845 5.67678 5.23533C5.72366 5.28222 5.75 5.34581 5.75 5.41211ZM5.75 5.41211H5.5M8.25 5.41211C8.25 5.47841 8.22366 5.542 8.17678 5.58889C8.12989 5.63577 8.0663 5.66211 8 5.66211C7.9337 5.66211 7.87011 5.63577 7.82322 5.58889C7.77634 5.542 7.75 5.47841 7.75 5.41211C7.75 5.34581 7.77634 5.28222 7.82322 5.23533C7.87011 5.18845 7.9337 5.16211 8 5.16211C8.0663 5.16211 8.12989 5.18845 8.17678 5.23533C8.22366 5.28222 8.25 5.34581 8.25 5.41211ZM8.25 5.41211H8M10.75 5.41211C10.75 5.47841 10.7237 5.542 10.6768 5.58889C10.6299 5.63577 10.5663 5.66211 10.5 5.66211C10.4337 5.66211 10.3701 5.63577 10.3232 5.58889C10.2763 5.542 10.25 5.47841 10.25 5.41211C10.25 5.34581 10.2763 5.28222 10.3232 5.23533C10.3701 5.18845 10.4337 5.16211 10.5 5.16211C10.5663 5.16211 10.6299 5.18845 10.6768 5.23533C10.7237 5.28222 10.75 5.34581 10.75 5.41211ZM10.75 5.41211H10.5M1.5 7.41878C1.5 8.48544 2.24867 9.41478 3.30467 9.57011C4.02933 9.67678 4.76133 9.75878 5.5 9.81611V12.9121L8.28933 10.1234C8.42744 9.98588 8.61312 9.90664 8.808 9.90211C10.1091 9.8701 11.407 9.75923 12.6947 9.57011C13.7513 9.41478 14.5 8.48611 14.5 7.41811V3.40611C14.5 2.33811 13.7513 1.40944 12.6953 1.25411C11.1406 1.02592 9.57135 0.911616 8 0.912111C6.40533 0.912111 4.83733 1.02878 3.30467 1.25411C2.24867 1.40944 1.5 2.33878 1.5 3.40611V7.41811V7.41878Z" stroke="#676767" stroke-width="1.5" stroke-linecap="round" stroke-linejoin="round"/>
</svg>
