<svg width="26" height="25" viewBox="0 0 26 25" fill="none" xmlns="http://www.w3.org/2000/svg">
<path fill-rule="evenodd" clip-rule="evenodd" d="M0.980774 12.7721L0.981995 12.6468L0.984512 12.5215L0.988333 12.3962L0.993451 12.2709L0.999878 12.1456L1.0076 12.0203L1.01664 11.895L1.02697 11.7698L1.03861 11.6446L1.05155 11.5194L1.06579 11.3944L1.08134 11.2694L1.09819 11.1445L1.11634 11.0197L1.1358 10.8951L1.15655 10.7707L1.17861 10.6463L1.20196 10.5222L1.22661 10.3982L1.25256 10.2744L1.27981 10.1507L1.30834 10.0274L1.33817 9.90425L1.36928 9.78131L1.40169 9.65869L1.43537 9.53625L1.47035 9.41412L1.5066 9.29231L1.54413 9.17081L1.58294 9.04963L1.62302 8.92875L1.66437 8.80819L1.70699 8.688L1.75086 8.56819L1.79601 8.44875L1.8424 8.32969L1.89005 8.21106L1.93895 8.09281L1.9891 7.97506L2.04048 7.85769L2.09311 7.74075L2.14697 7.62431L2.20205 7.50838L2.25837 7.39287L2.3159 7.27787L2.37465 7.16344L2.43461 7.0495L2.49577 6.93606L2.55813 6.82325L2.62169 6.71094L2.68644 6.59919L2.75237 6.48806L2.81948 6.3775L2.88776 6.26756L2.95722 6.15825L3.02783 6.04956L3.09959 5.94156L3.17251 5.83413L3.24657 5.72744L3.32177 5.62138L3.39809 5.516L3.47553 5.41138L3.55409 5.30737L3.63376 5.20419L3.71454 5.10169L3.7964 4.9999L3.87935 4.8989L3.96338 4.79866L4.04849 4.6992L4.13466 4.60052L4.22189 4.50264L4.31016 4.40557L4.39947 4.30931L4.48983 4.21389L4.5812 4.1193L4.67359 4.02556L4.76698 3.93268L4.86138 3.84067L4.95677 3.74954L5.05314 3.65929L5.15048 3.56996L5.24878 3.48152L5.34804 3.39401L5.44825 3.30742L5.5494 3.22176L5.65147 3.13706L5.75445 3.05332L5.85835 2.97054L5.96314 2.88873L6.06883 2.80791L6.17536 2.72808L6.28284 2.64925L6.39114 2.57144L6.50026 2.49464L6.6102 2.41888L6.72103 2.34414L6.83262 2.27045L6.94503 2.19782L7.05827 2.12624L7.17232 2.05574L7.28707 1.98632L7.40265 1.91797L7.51892 1.85073L7.63595 1.78459L7.75374 1.71955L7.87222 1.65563L7.9914 1.59283L8.11128 1.53117L8.23185 1.47064L8.35312 1.41126L8.47502 1.35303L8.59761 1.29595L8.72078 1.24004L8.84464 1.18531L8.96907 1.13176L9.09413 1.07939L9.21977 1.02821L9.34597 0.978231L9.47274 0.92945L9.60008 0.881888L9.72793 0.835531L9.85634 0.790406L9.98527 0.7465L10.1147 0.703825L10.2446 0.662394L10.3749 0.6222L10.5058 0.583256L10.6371 0.545569L10.7689 0.509138L10.9011 0.473962L11.0337 0.440056L11.1666 0.407425L11.3 0.376075L11.4338 0.345994L11.5679 0.317206L11.7023 0.2897L11.8371 0.263488L11.9722 0.238575L12.1077 0.214956L12.2434 0.192644L12.3794 0.171638L12.5157 0.151937L12.6522 0.133556L12.789 0.116487L12.926 0.100738L13.0632 0.0862999L13.2006 0.0732L13.3382 0.0614187L13.476 0.0509626L13.6139 0.0418438L14.3555 0L14.3978 3.53042L14.4221 3.53014L14.5245 3.53L14.6269 3.53085L14.7293 3.53269L14.8319 3.53554L14.9343 3.53938L15.0369 3.5442L15.1394 3.55003L15.242 3.55686L15.3444 3.56468L15.447 3.57351L15.5494 3.58333L15.6518 3.59416L15.7541 3.60597L15.8564 3.61879L15.9586 3.63261L16.0607 3.64742L16.1626 3.66324L16.2646 3.68006L16.3663 3.69786L16.4679 3.71667L16.5694 3.73647L16.6707 3.75727L16.7719 3.77906L16.8729 3.80184L16.9736 3.82561L17.0743 3.85037L17.1747 3.87613L17.2748 3.90286L17.3748 3.93059L17.4745 3.95929L17.574 3.98898L17.6731 4.01965L17.7721 4.0513L17.8708 4.08392L17.9691 4.11752L18.0672 4.15209L18.165 4.18762L18.2624 4.22412L18.3595 4.26159L18.4563 4.30002L18.5527 4.33941L18.6487 4.37974L18.7444 4.42104L18.8398 4.46328L18.9347 4.50647L19.0292 4.55059L19.1233 4.59566L19.217 4.64167L19.3102 4.68861L19.403 4.73647L19.4954 4.78526L19.5873 4.83497L19.6787 4.88559L19.7697 4.93713L19.8601 4.98958L19.9501 5.04294L20.0395 5.09719L20.1285 5.15231L20.2169 5.20837L20.3047 5.26525L20.392 5.32306L20.4788 5.38175L20.565 5.44125L20.6506 5.50169L20.7356 5.56294L20.82 5.62506L20.9039 5.68806L20.9871 5.75187L21.0697 5.81656L21.1516 5.882L21.233 5.94831L21.3136 6.0155L21.3937 6.08344L21.4731 6.15219L21.5518 6.22175L21.6297 6.29212L21.707 6.36331L21.7836 6.43525L21.8595 6.50794L21.9347 6.58144L22.0091 6.65569L22.0828 6.73075L22.1558 6.8065L22.228 6.883L22.2995 6.96025L22.3701 7.03825L22.44 7.11694L22.5092 7.19637L22.5775 7.2765L22.6451 7.35731L22.7118 7.43887L22.7777 7.52106L22.8428 7.60394L22.9071 7.6875L22.9705 7.77175L23.0331 7.85662L23.0948 7.94219L23.1557 8.02837L23.2157 8.11512L23.2749 8.20256L23.3331 8.29063L23.3905 8.37931L23.4469 8.46856L23.5025 8.55838L23.5572 8.64881L23.611 8.73981L23.6638 8.83138L23.7157 8.9235L23.7667 9.01619L23.8167 9.10938L23.8658 9.20312L23.914 9.29737L23.9612 9.39212L24.0074 9.48744L24.0527 9.58319L24.097 9.67944L24.1403 9.77619L24.1826 9.87337L24.2239 9.97106L24.2643 10.0691L24.3036 10.1677L24.342 10.2666L24.3793 10.3661L24.4156 10.4658L24.4509 10.5661L24.4852 10.6666L24.5185 10.7676L24.5507 10.8689L24.5819 10.9706L24.612 11.0727L24.6411 11.1751L24.6691 11.2778L24.6961 11.3809L24.722 11.4842L24.7469 11.5879L24.7707 11.6918L24.7934 11.7961L24.8151 11.9005L24.8357 12.0053L24.8551 12.1103L24.8736 12.2156L24.8909 12.321L24.9072 12.4267L24.9224 12.5326L24.9364 12.6387L24.9494 12.745L24.9613 12.8514L24.972 12.9581L24.9817 13.0648L24.9903 13.1718L24.9978 13.2788L25.0041 13.386L25.0094 13.4932L25.0135 13.6007L25.0165 13.7081L25.0185 13.8157L25.0192 13.9233L25.0189 14.031L25.0175 14.1388L25.0149 14.2466L25.0112 14.3543L25.0064 14.4621L25.0005 14.5699L24.9934 14.6777L24.9853 14.7856L24.976 14.8933L24.9655 15.0011L24.954 15.1087L24.9413 15.2163L24.9275 15.3239L24.9126 15.4313L24.8966 15.5387L24.8794 15.6459L24.8611 15.7531L24.8417 15.8601L24.8212 15.9669L24.7996 16.0737L24.7768 16.1803L24.7529 16.2866L24.7279 16.3929L24.7019 16.4989L24.6746 16.6047L24.6463 16.7103L24.6168 16.8156L24.5863 16.9207L24.5547 17.0256L24.5219 17.1303L24.488 17.2346L24.4531 17.3388L24.417 17.4425L24.3798 17.546L24.3416 17.6492L24.3023 17.752L24.2618 17.8545L24.2203 17.9567L24.1778 18.0585L24.1341 18.1599L24.0894 18.2611L24.0436 18.3617L23.9967 18.462L23.9488 18.5619L23.8998 18.6613L23.8497 18.7604L23.7986 18.8589L23.7465 18.9571L23.6933 19.0547L23.639 19.152L23.5838 19.2487L23.5275 19.3449L23.4702 19.4407L23.4119 19.5359L23.3525 19.6306L23.2921 19.7248L23.2308 19.8184L23.1685 19.9114L23.1051 20.0039L23.0407 20.0959L22.9754 20.1872L22.9091 20.278L22.8418 20.3682L22.7735 20.4577L22.7043 20.5467L22.6342 20.6349L22.5631 20.7226L22.491 20.8096L22.418 20.8959L22.3441 20.9816L22.2692 21.0666L22.1935 21.1509L22.1168 21.2346L22.0392 21.3175L21.9608 21.3997L21.8814 21.4812L21.8012 21.5619L21.72 21.6419L21.638 21.7211L21.5552 21.7996L21.4715 21.8774L21.387 21.9543L21.3016 22.0305L21.2154 22.1058L21.1284 22.1804L21.0406 22.2542L20.9519 22.3271L20.8625 22.3992L20.7723 22.4705L20.6812 22.5409L20.5895 22.6105L20.4969 22.6792L20.4036 22.7471L20.3096 22.8141L20.2148 22.8801L20.1192 22.9454L20.023 23.0097L19.9261 23.0731L19.8284 23.1356L19.7301 23.1972L19.6311 23.2578L19.5314 23.3176L19.4311 23.3763L19.33 23.4342L19.2284 23.4911L19.1261 23.5469L19.0232 23.6019L18.9197 23.6559L18.8155 23.7089L18.7108 23.7609L18.6055 23.8119L18.4996 23.8619L18.3931 23.911L18.2861 23.959L18.1785 24.006L18.0704 24.0519L17.9618 24.0969L17.8527 24.1408L17.743 24.1837L17.6329 24.2255L17.5223 24.2663L17.4112 24.306L17.2996 24.3447L17.1876 24.3822L17.0752 24.4188L16.9623 24.4543L16.849 24.4886L16.7353 24.5219L16.6213 24.5541L16.5068 24.5852L16.392 24.6153L16.2767 24.6442L16.1612 24.672L16.0453 24.6988L15.929 24.7243L15.8125 24.7488L15.6957 24.7722L15.5785 24.7944L15.4611 24.8156L15.3434 24.8355L15.2255 24.8544L15.1073 24.8721L14.9888 24.8887L14.8702 24.9041L14.7513 24.9184L14.6322 24.9316L14.513 24.9436L14.3935 24.9544L14.274 24.9641L14.1542 24.9727L14.0344 24.9801L13.9143 24.9863L13.7942 24.9914L13.674 24.9953L13.5536 24.998L13.4332 24.9996L13.3127 25L13.1922 24.9992L13.0716 24.9973L12.951 24.9942L12.8303 24.9899L12.7097 24.9845L12.5891 24.9779L12.4685 24.9701L12.3479 24.9612L12.2274 24.9511L12.1068 24.9397L11.9864 24.9273L11.8661 24.9137L11.7458 24.8989L11.6256 24.8829L11.5056 24.8657L11.3857 24.8474L11.2659 24.8279L11.1463 24.8073L11.0268 24.7854L10.9076 24.7624L10.7885 24.7383L10.6696 24.7129L10.5509 24.6864L10.4324 24.6587L10.3142 24.6299L10.1962 24.5999L10.0785 24.5688L9.9611 24.5366L9.84394 24.5031L9.72704 24.4686L9.61052 24.4328L9.49431 24.3959L9.37842 24.3579L9.26285 24.3188L9.14765 24.2784L9.03284 24.2371L8.9184 24.1945L8.80434 24.1508L8.69073 24.106L8.5775 24.0601L8.46471 24.013L8.35236 23.9649L8.24045 23.9156L8.12899 23.8652L8.01803 23.8138L7.90758 23.7612L7.79764 23.7075L7.68814 23.6527L7.57921 23.5969L7.47084 23.54L7.36292 23.4821L7.25563 23.423L7.14892 23.3629L7.04277 23.3017L6.93719 23.2394L6.83224 23.1762L6.72786 23.1118L6.62412 23.0465L6.52107 22.9801L6.41859 22.9127L6.31681 22.8442L6.21572 22.7748L6.11526 22.7043L6.01551 22.6328L5.91646 22.5604L5.81812 22.4869L5.7205 22.4124L5.62361 22.3371L5.52747 22.2606L5.43208 22.1833L5.33745 22.105L5.24359 22.0257L5.15052 21.9456L5.05824 21.8644L4.96677 21.7823L4.87611 21.6994L4.78627 21.6154L4.69727 21.5307L4.60911 21.4449L4.5218 21.3584L4.43536 21.2709L4.34979 21.1826L4.2651 21.0934L4.1813 21.0033L4.0984 20.9124L4.01641 20.8206L3.93534 20.7281L3.8552 20.6346L3.77599 20.5404L3.69773 20.4454L3.62042 20.3496L3.54408 20.2529L3.46871 20.1556L3.39432 20.0574L3.32091 19.9584L3.24851 19.8587L3.1771 19.7583L3.10671 19.6572L3.03734 19.5553L2.969 19.4527L2.9017 19.3494L2.83544 19.2454L2.77023 19.1407L2.70608 19.0354L2.643 18.9294L2.581 18.8228L2.52008 18.7154L2.46024 18.6075L2.4015 18.4989L2.34386 18.3897L2.28734 18.2799L2.23193 18.1696L2.17764 18.0586L2.12449 17.9471L2.07246 17.835L2.02158 17.7223L1.97185 17.6092L1.92327 17.4954L1.87586 17.3813L1.8296 17.2665L1.78453 17.1512L1.74063 17.0356L1.69791 16.9194L1.65638 16.8027L1.61604 16.6857L1.5769 16.5681L1.53897 16.4502L1.50224 16.3318L1.46674 16.2131L1.43244 16.0939L1.39937 15.9743L1.36753 15.8544L1.33692 15.7342L1.30754 15.6136L1.27941 15.4926L1.25252 15.3713L1.22687 15.2497L1.20248 15.1279L1.17934 15.0057L1.15746 14.8833L1.13684 14.7606L1.11748 14.6377L1.0994 14.5145L1.08258 14.3911L1.06705 14.2674L1.05278 14.1436L1.03979 14.0196L1.02809 13.8955L1.01767 13.7711L1.00854 13.6466L1.00069 13.522L0.994141 13.3973L0.988877 13.2724L0.984905 13.1474L0.982229 13.0224L0.980856 12.8972L0.980774 12.7721ZM13.2392 3.60437L13.2103 1.19799L13.1829 1.20061L13.0572 1.21383L12.9317 1.22826L12.8064 1.24391L12.6815 1.26072L12.5567 1.27876L12.4321 1.298L12.3079 1.31842L12.1838 1.34007L12.0603 1.36284L11.9366 1.38688L11.8138 1.41201L11.6909 1.4384L11.5685 1.46591L11.4463 1.49465L11.3247 1.52449L11.2033 1.55553L11.0823 1.58772L10.9617 1.62107L10.8416 1.65555L10.7217 1.69121L10.6025 1.72798L10.4836 1.76592L10.3653 1.80491L10.2472 1.84512L10.1297 1.88642L10.0128 1.92881L9.8962 1.97235L9.78024 2.01696L9.66492 2.06264L9.54992 2.10949L9.43548 2.15741L9.32161 2.20643L9.20838 2.25647L9.09572 2.3076L8.98368 2.35976L8.87203 2.41307L8.7612 2.46736L8.65094 2.52271L8.54131 2.57909L8.43232 2.63653L8.32408 2.69494L8.21629 2.75443L8.10919 2.81496L8.00304 2.87634L7.89721 2.93893L7.79239 3.00235L7.68826 3.06676L7.58464 3.13222L7.48185 3.19864L7.37981 3.26602L7.27872 3.33421L7.17802 3.40359L7.07832 3.47373L6.97938 3.54483L6.88114 3.6169L6.78378 3.68983L6.68731 3.76364L6.59141 3.83848L6.49659 3.91404L6.40246 3.99059L6.30921 4.06797L6.21679 4.14625L6.12532 4.22528L6.03453 4.30531L5.94478 4.38606L5.85579 4.46773L5.76784 4.55009L5.68069 4.63335L5.5945 4.71736L5.5092 4.80219L5.42472 4.88791L5.34135 4.97421L5.25892 5.06125L5.17722 5.14931L5.09665 5.23794L5.01707 5.32719L4.93831 5.41738L4.86069 5.50812L4.78393 5.59969L4.7082 5.69188L4.63347 5.78481L4.55971 5.87838L4.48704 5.97256L4.41531 6.06744L4.34458 6.16306L4.27498 6.25912L4.20631 6.356L4.13874 6.45338L4.07221 6.55137L4.00668 6.65L3.94226 6.74919L3.87889 6.84888L3.81658 6.94919L3.75539 7.05L3.69521 7.15144L3.63611 7.25344L3.57817 7.35581L3.52127 7.45875L3.46545 7.56225L3.41077 7.66619L3.35717 7.77062L3.30471 7.87544L3.25335 7.98075L3.20312 8.0865L3.15399 8.19275L3.10602 8.29931L3.05914 8.40637L3.0134 8.51381L2.96884 8.62156L2.92538 8.72975L2.88307 8.83831L2.84192 8.94719L2.80191 9.05644L2.76308 9.16594L2.72537 9.27588L2.68883 9.38606L2.65346 9.49656L2.61927 9.60725L2.58621 9.71838L2.55434 9.82963L2.52364 9.94119L2.49411 10.0529L2.46575 10.165L2.43857 10.2772L2.41257 10.3896L2.38775 10.5023L2.36411 10.6151L2.34165 10.728L2.32037 10.8411L2.30028 10.9544L2.28137 11.0678L2.26366 11.1813L2.24712 11.2949L2.23177 11.4087L2.21761 11.5225L2.20464 11.6364L2.19285 11.7504L2.18225 11.8644L2.17284 11.9784L2.16462 12.0925L2.15758 12.2066L2.15173 12.3207L2.14707 12.4348L2.14359 12.5489L2.1413 12.6629L2.14019 12.7769L2.14026 12.8909L2.14152 13.0048L2.14395 13.1187L2.14756 13.2324L2.15235 13.3461L2.15832 13.4596L2.16546 13.573L2.17377 13.6863L2.18325 13.7994L2.19391 13.9124L2.20572 14.0253L2.2187 14.1379L2.23284 14.2504L2.24813 14.3627L2.26459 14.4747L2.2822 14.5866L2.30095 14.6982L2.32085 14.8096L2.3419 14.9207L2.36409 15.0315L2.38741 15.1421L2.41187 15.2524L2.43745 15.3624L2.46417 15.4721L2.492 15.5814L2.52096 15.6905L2.55102 15.7991L2.58221 15.9075L2.6145 16.0155L2.64789 16.1231L2.68237 16.2304L2.71794 16.3372L2.75461 16.4436L2.79236 16.5496L2.83119 16.6553L2.87108 16.7604L2.91207 16.8651L2.95409 16.9694L2.99718 17.0732L3.04133 17.1765L3.08651 17.2793L3.13275 17.3817L3.18001 17.4836L3.22831 17.5849L3.27763 17.6857L3.32797 17.7859L3.37932 17.8857L3.43168 17.9849L3.48503 18.0835L3.53938 18.1816L3.59472 18.279L3.65103 18.3759L3.70832 18.4722L3.76658 18.5678L3.82577 18.6629L3.88595 18.7573L3.94706 18.8511L4.00911 18.9442L4.0721 19.0368L4.136 19.1286L4.20081 19.2197L4.26656 19.3102L4.33318 19.4001L4.40073 19.4892L4.46912 19.5776L4.53843 19.6653L4.60858 19.7522L4.6796 19.8384L4.7515 19.924L4.82421 20.0088L4.89778 20.0928L4.97216 20.176L5.0474 20.2585L5.12342 20.3402L5.20024 20.4211L5.27787 20.5012L5.35628 20.5806L5.43549 20.6592L5.51545 20.7369L5.5962 20.8138L5.67766 20.8899L5.75988 20.9652L5.84286 21.0396L5.92654 21.1132L6.0109 21.1859L6.09603 21.2578L6.18187 21.3288L6.26829 21.3989L6.35552 21.4682L6.44332 21.5365L6.53182 21.604L6.62096 21.6706L6.71078 21.7363L6.80118 21.8011L6.89221 21.8649L6.98381 21.9279L7.07611 21.9899L7.16891 22.051L7.2624 22.1112L7.35634 22.1704L7.45092 22.2287L7.54606 22.2861L7.64164 22.3424L7.73786 22.3979L7.83452 22.4523L7.93175 22.5058L8.02942 22.5583L8.12766 22.6099L8.22628 22.6604L8.32541 22.7101L8.42504 22.7586L8.52512 22.8063L8.62557 22.8529L8.72647 22.8985L8.82775 22.9431L8.92953 22.9867L9.03163 23.0293L9.13418 23.0709L9.23704 23.1114L9.34027 23.1509L9.44389 23.1895L9.54776 23.227L9.65202 23.2634L9.75665 23.2989L9.86153 23.3333L9.96673 23.3667L10.0721 23.399L10.178 23.4303L10.2839 23.4606L10.3902 23.4897L10.4967 23.5179L10.6034 23.5451L10.7104 23.5711L10.8175 23.5961L10.9249 23.6201L11.0325 23.643L11.1401 23.6649L11.248 23.6857L11.3561 23.7054L11.4643 23.7241L11.5726 23.7418L11.681 23.7583L11.7895 23.7738L11.8982 23.7882L12.0069 23.8017L12.1157 23.814L12.2246 23.8252L12.3335 23.8355L12.4425 23.8446L12.5515 23.8527L12.6605 23.8597L12.7696 23.8657L12.8785 23.8706L12.9875 23.8745L13.0965 23.8773L13.2055 23.879L13.3144 23.8797L13.4233 23.8793L13.5321 23.8779L13.6408 23.8754L13.7494 23.8719L13.8579 23.8673L13.9663 23.8617L14.0746 23.855L14.1828 23.8473L14.2908 23.8386L14.3987 23.8288L14.5063 23.8179L14.6139 23.806L14.7212 23.7931L14.8283 23.7792L14.9352 23.7642L15.0419 23.7482L15.1484 23.7312L15.2547 23.7131L15.3607 23.6941L15.4664 23.674L15.5719 23.6529L15.6771 23.6308L15.7819 23.6077L15.8865 23.5836L15.9908 23.5585L16.0948 23.5324L16.1984 23.5053L16.3016 23.4772L16.4046 23.4482L16.5072 23.4181L16.6094 23.3871L16.7112 23.3552L16.8126 23.3222L16.9137 23.2883L17.0142 23.2534L17.1144 23.2176L17.2142 23.1808L17.3135 23.1431L17.4124 23.1044L17.5108 23.0649L17.6087 23.0243L17.7062 22.9829L17.8031 22.9405L17.8995 22.8973L17.9956 22.8531L18.091 22.8079L18.1859 22.762L18.2804 22.7151L18.3742 22.6673L18.4675 22.6187L18.5603 22.5691L18.6524 22.5187L18.744 22.4675L18.835 22.4154L18.9255 22.3624L19.0152 22.3087L19.1045 22.254L19.193 22.1986L19.2809 22.1423L19.3683 22.0851L19.455 22.0271L19.5409 21.9685L19.6263 21.9089L19.711 21.8486L19.795 21.7876L19.8784 21.7256L19.9609 21.6631L20.043 21.5996L20.1241 21.5354L20.2046 21.4706L20.2845 21.4049L20.3636 21.3384L20.4418 21.2714L20.5194 21.2035L20.5962 21.135L20.6723 21.0658L20.7477 20.9958L20.8221 20.9253L20.8959 20.8539L20.9689 20.7819L21.0411 20.7092L21.1125 20.6359L21.1831 20.5621L21.2528 20.4876L21.3219 20.4122L21.3899 20.3364L21.4573 20.2599L21.5237 20.1829L21.5894 20.1052L21.6542 20.0271L21.7181 19.9482L21.7812 19.8688L21.8434 19.7889L21.9048 19.7084L21.9652 19.6274L22.0249 19.5457L22.0837 19.4636L22.1414 19.3811L22.1984 19.2979L22.2544 19.2143L22.3095 19.1301L22.3639 19.0454L22.4171 18.9604L22.4695 18.8749L22.5211 18.7887L22.5715 18.7024L22.6212 18.6155L22.67 18.5281L22.7177 18.4405L22.7646 18.3522L22.8105 18.2636L22.8553 18.1749L22.8994 18.0855L22.9424 17.9958L22.9845 17.9058L23.0256 17.8154L23.0658 17.7246L23.1049 17.6336L23.1432 17.5421L23.1805 17.4504L23.2167 17.3586L23.252 17.2661L23.2863 17.1736L23.3197 17.0806L23.3521 16.9875L23.3835 16.8941L23.4138 16.8006L23.4433 16.7065L23.4716 16.6125L23.499 16.5182L23.5254 16.4237L23.5509 16.3289L23.5752 16.2341L23.5987 16.139L23.6211 16.0437L23.6425 15.9483L23.663 15.8527L23.6823 15.7571L23.7007 15.6611L23.7181 15.5654L23.7345 15.4692L23.7499 15.3731L23.7642 15.2769L23.7776 15.1805L23.79 15.0842L23.8014 14.9876L23.8117 14.8913L23.821 14.7946L23.8293 14.6982L23.8367 14.6014L23.843 14.5051L23.8483 14.4084L23.8526 14.3116L23.8559 14.2151L23.8582 14.1188L23.8595 14.0221L23.8598 13.9256L23.8591 13.8293L23.8574 13.7329L23.8547 13.6366L23.851 13.5407L23.8463 13.4444L23.8406 13.3485L23.8339 13.2526L23.8262 13.1571L23.8176 13.0613L23.8079 12.966L23.7973 12.8706L23.7857 12.7756L23.7731 12.6806L23.7596 12.5859L23.7449 12.4911L23.7294 12.3968L23.713 12.3028L23.6955 12.2087L23.6771 12.115L23.6577 12.0216L23.6373 11.9282L23.6161 11.8354L23.5938 11.7426L23.5707 11.6503L23.5465 11.5579L23.5215 11.4663L23.4955 11.3747L23.4685 11.2833L23.4407 11.1925L23.4119 11.102L23.3821 11.0116L23.3515 10.9218L23.3199 10.8321L23.2875 10.743L23.2541 10.6541L23.2199 10.5657L23.1847 10.4776L23.1486 10.3899L23.1117 10.3027L23.074 10.216L23.0351 10.1294L22.9957 10.0436L22.9552 9.95781L22.9139 9.87288L22.8718 9.78825L22.8287 9.70394L22.7849 9.62031L22.7402 9.53706L22.6946 9.45419L22.6484 9.37212L22.6012 9.29025L22.5532 9.20906L22.5043 9.12825L22.4548 9.04825L22.4043 8.96844L22.3532 8.88937L22.3011 8.81069L22.2484 8.73269L22.1949 8.65538L22.1405 8.57837L22.0854 8.50206L22.0296 8.42631L21.973 8.35125L21.9157 8.27663L21.8576 8.20275L21.7988 8.12938L21.7393 8.05669L21.6791 7.98462L21.6181 7.91313L21.5564 7.84231L21.4941 7.77213L21.4312 7.70262L21.3675 7.63375L21.303 7.56544L21.2381 7.49806L21.1722 7.43106L21.106 7.365L21.039 7.29944L20.9714 7.23469L20.903 7.17044L20.8343 7.10719L20.7647 7.04444L20.6945 6.98244L20.624 6.92125L20.5528 6.86075L20.4807 6.80081L20.4083 6.74175L20.3353 6.68344L20.2618 6.62588L20.1876 6.569L20.1131 6.51306L20.0378 6.45756L19.9622 6.40312L19.8859 6.34938L19.8092 6.29631L19.732 6.24412L19.6541 6.19256L19.5762 6.14206L19.4973 6.09212L19.4183 6.04306L19.3386 5.99475L19.2585 5.94725L19.1781 5.90063L19.0973 5.85487L19.0158 5.80969L18.9342 5.76556L18.852 5.72213L18.7694 5.67956L18.6866 5.63788L18.6032 5.59694L18.5195 5.55681L18.4355 5.51763L18.351 5.47919L18.2664 5.44169L18.1813 5.40494L18.0932 5.36794L18.0103 5.33413L17.9241 5.29988L17.838 5.26669L17.7512 5.23413L17.6644 5.20262L17.5772 5.17188L17.4899 5.14206L17.4021 5.113L17.3143 5.08494L17.2262 5.05769L17.1378 5.03131L17.0493 5.00588L16.9605 4.98123L16.8714 4.95743L16.7824 4.93459L16.6932 4.91263L16.6034 4.89147L16.514 4.87129L16.4241 4.85192L16.3342 4.83348L16.244 4.81588L16.1539 4.79921L16.0636 4.78339L15.9733 4.7685L15.8826 4.75444L15.7921 4.74131L15.7015 4.72904L15.6107 4.71766L15.5199 4.70717L15.4292 4.69759L15.3383 4.68888L15.2474 4.68105L15.1564 4.67411L15.0654 4.66804L14.9746 4.66288L14.8838 4.6586L14.7926 4.65519L14.702 4.65268L14.6112 4.65104L14.5204 4.65029L14.4295 4.65042L14.4113 4.65063L14.4399 7.0395L14.4915 7.03925L14.5578 7.03963L14.6242 7.04063L14.6906 7.04231L14.7571 7.04463L14.8236 7.04763L14.8901 7.05125L14.9566 7.0555L15.0232 7.06044L15.0897 7.066L15.1563 7.07225L15.2227 7.07912L15.2893 7.08669L15.3558 7.09487L15.4222 7.10369L15.4886 7.11325L15.555 7.12337L15.6213 7.13419L15.6876 7.14569L15.7537 7.15781L15.8198 7.17062L15.8859 7.18406L15.9519 7.19812L16.0177 7.21287L16.0834 7.22831L16.1491 7.24437L16.2146 7.26106L16.28 7.27844L16.3453 7.29644L16.4104 7.31512L16.4755 7.33444L16.5403 7.35437L16.605 7.375L16.6695 7.39625L16.7339 7.41819L16.798 7.44075L16.862 7.46394L16.9258 7.48775L16.9894 7.51225L17.0528 7.53737L17.116 7.56312L17.179 7.58956L17.2417 7.61656L17.3042 7.64425L17.3665 7.6725L17.4285 7.70144L17.4903 7.731L17.5518 7.76119L17.613 7.792L17.674 7.82344L17.7346 7.85544L17.795 7.88813L17.8551 7.92138L17.9149 7.95525L17.9744 7.98975L18.0337 8.02487L18.0925 8.06056L18.151 8.09688L18.2092 8.13381L18.2671 8.17131L18.3246 8.20938L18.3818 8.24806L18.4386 8.28737L18.495 8.32719L18.5511 8.36763L18.6067 8.40869L18.6621 8.45025L18.7169 8.49244L18.7715 8.53519L18.8255 8.57844L18.8792 8.62231L18.9325 8.66675L18.9854 8.71169L19.0378 8.75719L19.0898 8.80325L19.1414 8.84987L19.1924 8.897L19.2431 8.94469L19.2933 8.99287L19.343 9.04163L19.3923 9.09088L19.441 9.14069L19.4894 9.19094L19.5371 9.24175L19.5845 9.29306L19.6313 9.34487L19.6776 9.39713L19.7234 9.44994L19.7687 9.50319L19.8135 9.55694L19.8577 9.61119L19.9014 9.66588L19.9445 9.72106L19.9872 9.77669L20.0292 9.83281L20.0707 9.88931L20.1117 9.94631L20.1521 10.0037L20.1919 10.0616L20.2312 10.1199L20.2698 10.1786L20.3079 10.2378L20.3454 10.2974L20.3823 10.3573L20.4187 10.4177L20.4543 10.4785L20.4894 10.5396L20.5239 10.6012L20.5578 10.6631L20.591 10.7254L20.6237 10.7881L20.6556 10.8512L20.687 10.9146L20.7177 10.9784L20.7478 11.0424L20.7772 11.1069L20.806 11.1717L20.8341 11.2368L20.8616 11.3022L20.8884 11.368L20.9145 11.4341L20.94 11.5004L20.9648 11.5671L20.9889 11.634L21.0123 11.7013L21.0351 11.7688L21.0571 11.8366L21.0785 11.9046L21.0992 11.9729L21.1192 12.0414L21.1385 12.1103L21.157 12.1793L21.1749 12.2486L21.1921 12.3181L21.2085 12.3878L21.2243 12.4577L21.2393 12.5278L21.2535 12.5981L21.2671 12.6686L21.2799 12.7394L21.2921 12.8103L21.3035 12.8813L21.3141 12.9525L21.324 13.0238L21.3332 13.0953L21.3417 13.167L21.3493 13.2388L21.3563 13.3107L21.3625 13.3827L21.368 13.4549L21.3727 13.5271L21.3766 13.5994L21.3799 13.6719L21.3823 13.7444L21.3841 13.817L21.385 13.8897L21.3852 13.9624L21.3846 14.0352L21.3833 14.108L21.3812 14.1809L21.3784 14.2538L21.3748 14.3267L21.3704 14.3996L21.3653 14.4726L21.3594 14.5456L21.3527 14.6185L21.3453 14.6914L21.337 14.7643L21.3281 14.8372L21.3184 14.9101L21.3079 14.9829L21.2966 15.0556L21.2846 15.1283L21.2718 15.2009L21.2582 15.2735L21.2439 15.346L21.2288 15.4184L21.2129 15.4907L21.1964 15.5629L21.179 15.6349L21.1608 15.7069L21.1419 15.7788L21.1222 15.8504L21.1018 15.922L21.0806 15.9934L21.0586 16.0646L21.0359 16.1357L21.0124 16.2067L20.9882 16.2774L20.9632 16.3479L20.9375 16.4183L20.911 16.4884L20.8837 16.5584L20.8558 16.6281L20.8271 16.6976L20.7976 16.7669L20.7673 16.8359L20.7364 16.9048L20.7047 16.9733L20.6723 17.0416L20.6391 17.1096L20.6052 17.1773L20.5705 17.2448L20.5352 17.3119L20.4991 17.3787L20.4623 17.4453L20.4248 17.5116L20.3866 17.5775L20.3476 17.6431L20.3079 17.7084L20.2676 17.7733L20.2265 17.8379L20.1847 17.9021L20.1423 17.9659L20.0991 18.0294L20.0552 18.0925L20.0107 18.1553L19.9655 18.2176L19.9195 18.2795L19.873 18.3411L19.8257 18.4022L19.7778 18.4629L19.7292 18.5231L19.6799 18.583L19.63 18.6424L19.5795 18.7014L19.5282 18.7599L19.4763 18.8179L19.4238 18.8755L19.3707 18.9326L19.3169 18.9893L19.2626 19.0454L19.2076 19.1011L19.152 19.1562L19.0957 19.2109L19.0388 19.2651L18.9813 19.3187L18.9233 19.3717L18.8647 19.4244L18.8054 19.4764L18.7456 19.5279L18.6852 19.5789L18.6243 19.6292L18.5628 19.6791L18.5007 19.7284L18.438 19.7771L18.3748 19.8252L18.3111 19.8727L18.2468 19.9197L18.182 19.9661L18.1167 20.0119L18.0509 20.057L17.9845 20.1016L17.9176 20.1455L17.8502 20.1888L17.7823 20.2315L17.714 20.2736L17.6451 20.3149L17.5759 20.3557L17.506 20.3959L17.4358 20.4353L17.3651 20.4741L17.2939 20.5123L17.2223 20.5498L17.1502 20.5866L17.0777 20.6227L17.0049 20.6582L16.9316 20.693L16.8578 20.7271L16.7837 20.7604L16.7091 20.7931L16.6342 20.8251L16.5589 20.8564L16.4832 20.8869L16.4072 20.9168L16.3308 20.9459L16.2541 20.9744L16.1769 21.0021L16.0995 21.029L16.0217 21.0552L15.9436 21.0807L15.8652 21.1054L15.7865 21.1294L15.7075 21.1526L15.6282 21.1751L15.5486 21.1968L15.4687 21.2177L15.3885 21.2379L15.3081 21.2574L15.2275 21.2761L15.1465 21.2939L15.0654 21.3111L14.984 21.3274L14.9024 21.3429L14.8206 21.3577L14.7386 21.3717L14.6563 21.3849L14.574 21.3973L14.4913 21.4089L14.4085 21.4198L14.3256 21.4298L14.2425 21.439L14.1593 21.4474L14.0759 21.4551L13.9924 21.4619L13.9088 21.4679L13.825 21.4731L13.7411 21.4774L13.6572 21.481L13.5731 21.4837L13.489 21.4857L13.4048 21.4868L13.3205 21.4871L13.2362 21.4866L13.1518 21.4853L13.0674 21.4831L12.9829 21.4801L12.8985 21.4763L12.814 21.4717L12.7295 21.4663L12.645 21.46L12.5605 21.4529L12.4761 21.4449L12.3916 21.4362L12.3073 21.4266L12.2229 21.4162L12.1386 21.405L12.0544 21.3929L11.9703 21.3801L11.8862 21.3664L11.8022 21.3518L11.7183 21.3365L11.6346 21.3203L11.5509 21.3033L11.4674 21.2854L11.384 21.2668L11.3007 21.2473L11.2176 21.227L11.1347 21.2059L11.0519 21.1839L10.9693 21.1612L10.8869 21.1376L10.8047 21.1133L10.7226 21.0881L10.6408 21.062L10.5593 21.0352L10.4779 21.0076L10.3968 20.9791L10.3159 20.9499L10.2353 20.9198L10.1549 20.8889L10.0748 20.8573L9.99501 20.8248L9.91549 20.7916L9.83629 20.7576L9.75741 20.7227L9.67877 20.6871L9.60052 20.6507L9.52259 20.6135L9.44497 20.5755L9.36767 20.5367L9.29081 20.4972L9.21426 20.4569L9.1381 20.4159L9.06231 20.3741L8.98691 20.3314L8.91188 20.2881L8.8373 20.244L8.7631 20.1991L8.68934 20.1536L8.61602 20.1072L8.54315 20.0601L8.47072 20.0122L8.39873 19.9637L8.32718 19.9144L8.25614 19.8644L8.18554 19.8137L8.11545 19.7622L8.0458 19.7101L7.97673 19.6572L7.90815 19.6036L7.84009 19.5493L7.77252 19.4944L7.70547 19.4387L7.63898 19.3824L7.57307 19.3253L7.50766 19.2676L7.44282 19.2092L7.37861 19.1502L7.31491 19.0906L7.25178 19.0302L7.18928 18.9692L7.12741 18.9076L7.06611 18.8453L7.00538 18.7824L6.94529 18.7188L6.88588 18.6547L6.82705 18.5899L6.76886 18.5245L6.71135 18.4585L6.65442 18.3919L6.59825 18.3247L6.54264 18.2569L6.4878 18.1886L6.43358 18.1197L6.38007 18.0502L6.32724 17.9801L6.27505 17.9096L6.22363 17.8384L6.17296 17.7667L6.12292 17.6944L6.07364 17.6217L6.02509 17.5484L5.97728 17.4746L5.93019 17.4003L5.88386 17.3255L5.83828 17.2502L5.79345 17.1744L5.74938 17.0981L5.70608 17.0214L5.66356 16.9442L5.62182 16.8666L5.58085 16.7884L5.54067 16.7099L5.5013 16.6309L5.46271 16.5514L5.42493 16.4716L5.38797 16.3913L5.35181 16.3107L5.31647 16.2296L5.28196 16.1481L5.24826 16.0663L5.21541 15.9841L5.18339 15.9015L5.15221 15.8186L5.12187 15.7353L5.09239 15.6516L5.06376 15.5677L5.03598 15.4834L5.00906 15.3988L4.98301 15.3139L4.95783 15.2286L4.93352 15.1431L4.91008 15.0573L4.88753 14.9712L4.86586 14.8849L4.84506 14.7983L4.82517 14.7114L4.80616 14.6243L4.78805 14.5369L4.77084 14.4494L4.75452 14.3616L4.73911 14.2736L4.72461 14.1854L4.71102 14.097L4.69833 14.0084L4.68657 13.9197L4.67572 13.8307L4.66579 13.7417L4.65677 13.6525L4.64868 13.5631L4.64152 13.4736L4.63528 13.3841L4.62997 13.2943L4.62559 13.2045L4.62215 13.1146L4.61963 13.0246L4.61805 12.9346L4.61741 12.8444L4.6177 12.7542L4.61893 12.6639L4.62111 12.5737L4.62421 12.4834L4.62827 12.393L4.63327 12.3027L4.6392 12.2123L4.64608 12.122L4.6539 12.0316L4.66267 11.9414L4.67239 11.8511L4.68304 11.7609L4.69464 11.6707L4.70718 11.5806L4.72067 11.4905L4.73511 11.4006L4.75048 11.3107L4.7668 11.2209L4.78406 11.1312L4.80227 11.0417L4.82141 10.9523L4.8415 10.863L4.86253 10.7739L4.88449 10.6849L4.90739 10.5961L4.93124 10.5074L4.95601 10.4189L4.98172 10.3307L5.00836 10.2426L5.03593 10.1548L5.06443 10.0671L5.09386 9.97969L5.12421 9.8925L5.1555 9.80556L5.18769 9.71887L5.22081 9.63244L5.25484 9.54631L5.28979 9.46044L5.32566 9.37488L5.36243 9.28963L5.40011 9.20463L5.43869 9.12L5.47817 9.03569L5.51856 8.95169L5.55983 8.86806L5.60201 8.78481L5.64507 8.70188L5.68902 8.61938L5.73384 8.53719L5.77955 8.45544L5.82614 8.37406L5.87359 8.29306L5.92191 8.21256L5.9711 8.13244L6.02115 8.05275L6.07206 7.9735L6.1238 7.89469L6.17643 7.81637L6.22983 7.7385L6.28416 7.66113L6.33926 7.58419L6.39518 7.50775L6.45199 7.43187L6.50956 7.35644L6.56801 7.28156L6.62722 7.20719L6.68725 7.13337L6.74804 7.06012L6.80966 6.98738L6.87209 6.91519L6.93529 6.84356L6.99925 6.77256L7.06402 6.70213L7.1295 6.63225L7.19579 6.563L7.26285 6.49431L7.3306 6.42631L7.39911 6.35888L7.46837 6.29206L7.5384 6.22594L7.60913 6.16037L7.68055 6.09556L7.75272 6.03131L7.8256 5.96781L7.89911 5.90494L7.97337 5.84275L8.04833 5.78125L8.12393 5.72044L8.20022 5.66031L8.27721 5.60094L8.35483 5.54225L8.43308 5.48431L8.51202 5.42706L8.59154 5.37056L8.67169 5.31481L8.75253 5.25981L8.83395 5.20556L8.91593 5.15212L8.99861 5.09938L9.0818 5.04744L9.16562 4.99627L9.25 4.94589L9.33496 4.89631L9.42042 4.84752L9.50652 4.79953L9.59312 4.75235L9.68023 4.70599L9.76791 4.66046L9.85609 4.61574L9.94478 4.57186L10.034 4.52882L10.1237 4.48662L10.2139 4.44527L10.3045 4.40477L10.3957 4.36512L10.4873 4.32635L10.5793 4.28844L10.6718 4.25141L10.7647 4.21525L10.8581 4.17997L10.9518 4.14559L11.046 4.11209L11.1406 4.07949L11.2355 4.04779L11.3308 4.017L11.4265 3.98712L11.5226 3.95814L11.619 3.93009L11.7158 3.90296L11.8128 3.87674L11.9102 3.85146L12.008 3.82711L12.106 3.8037L12.2043 3.78123L12.303 3.75969L12.4018 3.73911L12.501 3.71947L12.6004 3.70079L12.7 3.68306L12.7999 3.66628L12.9001 3.65047L13.0004 3.63562L13.1009 3.62174L13.2016 3.60882L13.2392 3.60437ZM13.2817 7.14756L13.2527 4.73243L13.1702 4.74383L13.0814 4.75698L12.9926 4.77099L12.9044 4.78581L12.816 4.80154L12.7281 4.81807L12.6403 4.83545L12.5529 4.85364L12.4657 4.8727L12.3786 4.8926L12.2918 4.91332L12.2054 4.93486L12.1191 4.95726L12.0361 4.97962L11.9478 5.00444L11.8624 5.02925L11.7775 5.05487L11.6929 5.08125L11.6086 5.1085L11.5246 5.13656L11.441 5.16537L11.3578 5.19494L11.2749 5.22538L11.1924 5.2565L11.1103 5.2885L11.0287 5.32119L10.9472 5.35475L10.8663 5.389L10.7857 5.424L10.7058 5.45975L10.626 5.49631L10.5467 5.53362L10.4681 5.57156L10.3896 5.61037L10.3119 5.64981L10.2343 5.69013L10.1575 5.73094L10.0808 5.77275L10.0049 5.815L9.92953 5.85806L9.85451 5.90188L9.78005 5.94631L9.70598 5.99156L9.63266 6.03731L9.55966 6.08387L9.48735 6.13106L9.41555 6.17887L9.34426 6.22744L9.27341 6.27669L9.20338 6.32638L9.13373 6.37694L9.06466 6.42806L8.99621 6.47981L8.92839 6.53212L8.86102 6.58519L8.79441 6.63875L8.72837 6.69294L8.66283 6.74788L8.59812 6.80319L8.53385 6.85925L8.47021 6.91587L8.40727 6.973L8.34502 7.03069L8.28322 7.08906L8.2223 7.14781L8.16195 7.20719L8.10217 7.26719L8.04315 7.32763L7.98476 7.38869L7.92707 7.45019L7.87007 7.51219L7.81371 7.57475L7.75798 7.63788L7.70319 7.70131L7.64892 7.76537L7.59534 7.82994L7.54251 7.89487L7.49045 7.96025L7.43896 8.02625L7.38829 8.09256L7.33831 8.15938L7.2891 8.22662L7.24058 8.29431L7.19288 8.36231L7.14588 8.43081L7.09957 8.49975L7.05403 8.56906L7.0093 8.63869L6.96534 8.70875L6.92207 8.77931L6.87956 8.85006L6.83787 8.92125L6.79688 8.99281L6.75677 9.06456L6.71736 9.13681L6.67865 9.20944L6.64088 9.28219L6.60381 9.35544L6.56757 9.42894L6.53208 9.50263L6.49741 9.57675L6.4635 9.65106L6.43042 9.72569L6.39809 9.80056L6.36665 9.87569L6.33597 9.95106L6.30605 10.0268L6.27695 10.1026L6.24874 10.1787L6.22122 10.2551L6.19465 10.3315L6.16878 10.4082L6.14379 10.4852L6.11956 10.5623L6.09622 10.6396L6.07364 10.717L6.05194 10.7946L6.03101 10.8724L6.01092 10.9502L5.99165 11.0283L5.97322 11.1065L5.9556 11.1847L5.93881 11.2632L5.92286 11.3417L5.90772 11.4202L5.89341 11.499L5.87994 11.5778L5.86729 11.6566L5.85548 11.7354L5.84448 11.8144L5.83432 11.8934L5.82498 11.9725L5.81647 12.0516L5.80879 12.1307L5.80194 12.2098L5.79592 12.2889L5.79072 12.3681L5.78634 12.4472L5.78279 12.5262L5.78007 12.6053L5.77817 12.6843L5.77709 12.7633L5.77683 12.8423L5.7774 12.9212L5.77878 13L5.78098 13.0788L5.78399 13.1574L5.78783 13.236L5.79247 13.3145L5.79792 13.3928L5.80419 13.4711L5.81126 13.5493L5.81915 13.6273L5.82783 13.7051L5.83732 13.7829L5.84761 13.8605L5.85869 13.9379L5.87058 14.0152L5.88325 14.0922L5.89672 14.1691L5.91097 14.2459L5.92601 14.3223L5.94184 14.3987L5.95844 14.4747L5.97583 14.5507L5.99397 14.6263L6.01291 14.7017L6.03261 14.7769L6.05308 14.8518L6.07427 14.9264L6.09628 15.0009L6.119 15.075L6.14253 15.1489L6.16676 15.2225L6.19174 15.2957L6.21749 15.3687L6.24393 15.4414L6.27113 15.5138L6.29909 15.5858L6.32775 15.6575L6.3571 15.7289L6.38721 15.7999L6.41802 15.8706L6.44959 15.9409L6.48179 16.0109L6.51474 16.0805L6.5484 16.1497L6.58268 16.2186L6.61773 16.2871L6.65341 16.3552L6.68978 16.4229L6.72685 16.4901L6.76455 16.557L6.80295 16.6234L6.84198 16.6894L6.88171 16.755L6.92207 16.8202L6.96306 16.8849L7.00469 16.9491L7.04701 17.013L7.08983 17.0763L7.13342 17.1392L7.17751 17.2016L7.2223 17.2635L7.26765 17.3249L7.31364 17.3859L7.3602 17.4463L7.40739 17.5063L7.45509 17.5658L7.50342 17.6247L7.55232 17.6831L7.60179 17.7411L7.65183 17.7984L7.70243 17.8553L7.75355 17.9116L7.80523 17.9674L7.85742 18.0226L7.91018 18.0772L7.96344 18.1314L8.01727 18.1849L8.07155 18.2379L8.1264 18.2904L8.18175 18.3423L8.23748 18.3935L8.29384 18.4443L8.35059 18.4943L8.40784 18.5438L8.46559 18.5928L8.52379 18.6411L8.58243 18.6888L8.64151 18.7359L8.70104 18.7824L8.76101 18.8282L8.82142 18.8736L8.88228 18.9182L8.94345 18.9622L9.00506 19.0056L9.06712 19.0483L9.12956 19.0904L9.19244 19.1319L9.25563 19.1727L9.31921 19.2129L9.38317 19.2525L9.44744 19.2914L9.51209 19.3296L9.57712 19.3672L9.6424 19.4041L9.70813 19.4403L9.77404 19.4759L9.8404 19.5108L9.90701 19.5451L9.97388 19.5786L10.0411 19.6115L10.1087 19.6437L10.1764 19.6753L10.2444 19.7061L10.3128 19.7362L10.3813 19.7657L10.4502 19.7944L10.5192 19.8226L10.5886 19.8499L10.658 19.8766L10.7278 19.9026L10.7978 19.9279L10.8679 19.9526L10.9383 19.9764L11.0089 19.9997L11.0796 20.0221L11.1505 20.0439L11.2216 20.065L11.2928 20.0854L11.3642 20.1051L11.4357 20.124L11.5074 20.1423L11.5792 20.1598L11.6511 20.1766L11.7232 20.1927L11.7954 20.2082L11.8676 20.2229L11.9399 20.2368L12.0124 20.2501L12.0848 20.2626L12.1575 20.2745L12.2301 20.2856L12.3028 20.296L12.3755 20.3057L12.4483 20.3147L12.5211 20.3229L12.5939 20.3305L12.6668 20.3373L12.7396 20.3434L12.8125 20.3488L12.8854 20.3536L12.9582 20.3575L13.031 20.3608L13.1039 20.3634L13.1766 20.3652L13.2493 20.3664L13.322 20.3668L13.3946 20.3666L13.4672 20.3656L13.5397 20.3639L13.612 20.3616L13.6844 20.3585L13.7566 20.3547L13.8287 20.3502L13.9007 20.3451L13.9726 20.3392L14.0443 20.3326L14.116 20.3254L14.1876 20.3174L14.2589 20.3088L14.3302 20.2995L14.4012 20.2896L14.4721 20.2789L14.5428 20.2675L14.6133 20.2555L14.6837 20.2428L14.7539 20.2294L14.8238 20.2154L14.8937 20.2006L14.9631 20.1852L15.0325 20.1693L15.1015 20.1525L15.1704 20.1352L15.2391 20.1172L15.3074 20.0985L15.3756 20.0792L15.4435 20.0592L15.511 20.0387L15.5783 20.0174L15.6454 19.9956L15.7122 19.9731L15.7787 19.9499L15.8448 19.9262L15.9107 19.9018L15.9762 19.8768L16.0414 19.8512L16.1064 19.8249L16.171 19.7981L16.2352 19.7707L16.2992 19.7427L16.3627 19.7141L16.4259 19.6848L16.4888 19.655L16.5512 19.6247L16.6134 19.5936L16.6751 19.5621L16.7365 19.5299L16.7974 19.4973L16.858 19.4641L16.9182 19.4303L16.9779 19.3959L17.0373 19.3609L17.0963 19.3255L17.1547 19.2895L17.2129 19.2529L17.2705 19.2159L17.3277 19.1783L17.3846 19.1401L17.4409 19.1015L17.4967 19.0624L17.5523 19.0227L17.6072 18.9826L17.6617 18.9419L17.7158 18.9007L17.7692 18.8592L17.8224 18.817L17.875 18.7744L17.9269 18.7314L17.9787 18.6877L18.0297 18.6437L18.0803 18.5994L18.1305 18.5543L18.18 18.5091L18.2291 18.4633L18.2776 18.417L18.3256 18.3704L18.3731 18.3232L18.4201 18.2757L18.4665 18.2278L18.5123 18.1795L18.5577 18.1307L18.6025 18.0816L18.6467 18.0322L18.6905 17.9822L18.7336 17.9319L18.7761 17.8813L18.8181 17.8302L18.8595 17.7789L18.9004 17.7271L18.9407 17.6751L18.9804 17.6226L19.0195 17.5698L19.0579 17.5168L19.096 17.4632L19.1333 17.4096L19.17 17.3555L19.2063 17.3011L19.2417 17.2465L19.2768 17.1915L19.3111 17.1362L19.3449 17.0807L19.378 17.0249L19.4106 16.9687L19.4424 16.9125L19.4738 16.8558L19.5045 16.7989L19.5345 16.7419L19.564 16.6844L19.5927 16.627L19.621 16.569L19.6485 16.5112L19.6755 16.4527L19.7017 16.3944L19.7275 16.3356L19.7525 16.2769L19.7769 16.2179L19.8007 16.1586L19.8238 16.0992L19.8462 16.0398L19.8682 15.9799L19.8893 15.9201L19.9099 15.8601L19.9298 15.7999L19.9491 15.7395L19.9677 15.6791L19.9857 15.6186L20.003 15.5578L20.0197 15.4971L20.0357 15.4361L20.0511 15.3751L20.0659 15.3141L20.08 15.2528L20.0934 15.1916L20.1062 15.1303L20.1183 15.0689L20.1298 15.0075L20.1406 14.9458L20.1508 14.8844L20.1604 14.8228L20.1692 14.7611L20.1774 14.6995L20.185 14.6378L20.192 14.5759L20.1983 14.5145L20.204 14.4526L20.209 14.3909L20.2132 14.3293L20.217 14.2676L20.22 14.2059L20.2224 14.1444L20.2242 14.0826L20.2253 14.0212L20.2258 13.9596L20.2256 13.8982L20.2248 13.8368L20.2234 13.7756L20.2213 13.7143L20.2186 13.6531L20.2152 13.5921L20.2112 13.531L20.2066 13.4701L20.2014 13.4094L20.1955 13.3486L20.189 13.2882L20.1819 13.2276L20.1742 13.1674L20.1658 13.1072L20.1568 13.0471L20.1472 12.9872L20.137 12.9275L20.1262 12.8679L20.1148 12.8086L20.1027 12.7491L20.09 12.6901L20.0768 12.6313L20.0629 12.5726L20.0485 12.5139L20.0335 12.4558L20.0178 12.3975L20.0016 12.3397L19.9848 12.2819L19.9674 12.2246L19.9494 12.1672L19.9308 12.1102L19.9117 12.0535L19.892 11.997L19.8717 11.9406L19.8509 11.8846L19.8295 11.8288L19.8075 11.7734L19.785 11.7181L19.7619 11.663L19.7383 11.6084L19.7141 11.5539L19.6894 11.4999L19.6642 11.4461L19.6384 11.3925L19.612 11.3392L19.5852 11.2864L19.5578 11.2337L19.5299 11.1815L19.5015 11.1296L19.4725 11.0778L19.4432 11.0266L19.4132 10.9756L19.3828 10.9251L19.3518 10.8747L19.3205 10.8249L19.2885 10.7752L19.2561 10.7261L19.2232 10.6772L19.1899 10.6288L19.156 10.5806L19.1217 10.5329L19.087 10.4857L19.0518 10.4386L19.0161 10.3921L18.98 10.3459L18.9435 10.3003L18.9064 10.2548L18.869 10.2099L18.8311 10.1653L18.7928 10.1211L18.7542 10.0775L18.715 10.0341L18.6755 9.99131L18.6355 9.94881L18.5953 9.90694L18.5544 9.86525L18.5134 9.82419L18.4717 9.78337L18.4298 9.74319L18.3877 9.70344L18.345 9.66406L18.3019 9.62512L18.2585 9.58675L18.2148 9.54881L18.1706 9.51119L18.1264 9.47431L18.0815 9.43763L18.0364 9.40156L17.991 9.366L17.9452 9.33075L17.8992 9.29613L17.8529 9.26206L17.8061 9.22831L17.759 9.195L17.7119 9.16244L17.6641 9.13013L17.6164 9.09856L17.5683 9.06731L17.5198 9.03656L17.471 9.00631L17.4222 8.97669L17.3729 8.94744L17.3234 8.91881L17.2736 8.89056L17.2238 8.863L17.1736 8.83587L17.1231 8.80919L17.0724 8.78306L17.0216 8.75756L16.9705 8.73244L16.9192 8.70788L16.8677 8.68388L16.8162 8.66044L16.764 8.63737L16.7122 8.615L16.6599 8.59312L16.6074 8.57169L16.5548 8.55087L16.5022 8.53063L16.4493 8.51087L16.3961 8.49156L16.3431 8.47294L16.2897 8.45475L16.2361 8.43713L16.1827 8.42006L16.129 8.40356L16.0753 8.38756L16.0211 8.37206L15.9672 8.35719L15.9131 8.34281L15.8589 8.329L15.8046 8.31569L15.7501 8.30294L15.6957 8.29075L15.6413 8.27913L15.5866 8.268L15.5318 8.25737L15.4774 8.24744L15.4225 8.23794L15.3678 8.229L15.3128 8.22056L15.2582 8.21275L15.2031 8.20537L15.1483 8.19869L15.0934 8.19244L15.0385 8.18675L14.9837 8.18163L14.9287 8.177L14.874 8.17294L14.819 8.16944L14.7642 8.16644L14.7095 8.164L14.6545 8.16206L14.5999 8.16069L14.5452 8.15987L14.4906 8.15956L14.4533 8.15969L14.4816 10.5193L14.4985 10.5194L14.5299 10.5198L14.5613 10.5206L14.5928 10.5216L14.6243 10.523L14.6559 10.5247L14.6874 10.5267L14.7191 10.5291L14.7507 10.5317L14.7824 10.5347L14.8141 10.5381L14.8458 10.5417L14.8775 10.5457L14.9092 10.55L14.941 10.5546L14.9727 10.5596L15.0045 10.5649L15.0362 10.5706L15.0679 10.5766L15.0996 10.5828L15.1313 10.5895L15.163 10.5964L15.1947 10.6038L15.2263 10.6114L15.2579 10.6193L15.2895 10.6276L15.321 10.6362L15.3525 10.6452L15.3839 10.6545L15.4153 10.6641L15.4466 10.6741L15.4779 10.6844L15.5091 10.6951L15.5403 10.706L15.5714 10.7173L15.6024 10.7289L15.6333 10.7409L15.6642 10.7532L15.6949 10.7658L15.7256 10.7788L15.7562 10.7921L15.7867 10.8057L15.8171 10.8196L15.8474 10.8339L15.8776 10.8485L15.9077 10.8634L15.9376 10.8787L15.9675 10.8943L15.9972 10.9102L16.0268 10.9265L16.0563 10.9431L16.0857 10.9599L16.1148 10.9771L16.1439 10.9947L16.1728 11.0126L16.2016 11.0308L16.2302 11.0492L16.2587 11.068L16.287 11.0872L16.3152 11.1066L16.3431 11.1264L16.371 11.1464L16.3986 11.1668L16.4261 11.1875L16.4533 11.2085L16.4805 11.2298L16.5073 11.2514L16.534 11.2733L16.5606 11.2956L16.5869 11.3181L16.613 11.3409L16.639 11.364L16.6647 11.3874L16.6902 11.4111L16.7154 11.4351L16.7405 11.4594L16.7653 11.484L16.7899 11.5089L16.8143 11.534L16.8384 11.5594L16.8624 11.5852L16.886 11.6112L16.9095 11.6374L16.9326 11.664L16.9555 11.6908L16.9782 11.7179L17.0006 11.7453L17.0228 11.7729L17.0447 11.8008L17.0663 11.8289L17.0877 11.8573L17.1087 11.886L17.1295 11.9149L17.1501 11.9441L17.1703 11.9735L17.1902 12.0032L17.2099 12.0331L17.2293 12.0633L17.2484 12.0936L17.2671 12.1243L17.2856 12.1551L17.3038 12.1862L17.3217 12.2175L17.3392 12.2491L17.3565 12.2808L17.3734 12.3128L17.39 12.345L17.4063 12.3774L17.4223 12.41L17.4379 12.4429L17.4532 12.4759L17.4682 12.5091L17.4829 12.5426L17.4972 12.5762L17.5111 12.61L17.5247 12.644L17.538 12.6782L17.551 12.7126L17.5636 12.7471L17.5758 12.7819L17.5877 12.8167L17.5992 12.8518L17.6103 12.8871L17.6211 12.9224L17.6316 12.958L17.6416 12.9938L17.6514 13.0296L17.6607 13.0656L17.6697 13.1017L17.6783 13.1381L17.6865 13.1744L17.6943 13.2111L17.7018 13.2477L17.7088 13.2845L17.7155 13.3215L17.7219 13.3586L17.7278 13.3957L17.7333 13.433L17.7384 13.4704L17.7432 13.5079L17.7475 13.5455L17.7515 13.5832L17.7551 13.6209L17.7582 13.6588L17.761 13.6968L17.7634 13.7348L17.7653 13.7729L17.7668 13.8111L17.768 13.8494L17.7687 13.8877L17.7691 13.9261L17.769 13.9644L17.7685 14.0029L17.7677 14.0415L17.7663 14.0801L17.7646 14.1187L17.7625 14.1573L17.7599 14.196L17.757 14.2347L17.7535 14.2734L17.7498 14.3122L17.7456 14.3509L17.7409 14.3897L17.7358 14.4285L17.7304 14.4673L17.7245 14.5061L17.7182 14.5448L17.7114 14.5836L17.7043 14.6223L17.6967 14.6611L17.6887 14.6997L17.6802 14.7384L17.6714 14.7771L17.6621 14.8157L17.6524 14.8542L17.6423 14.8928L17.6318 14.9312L17.6208 14.9697L17.6094 15.008L17.5975 15.0463L17.5853 15.0846L17.5727 15.1227L17.5596 15.1608L17.5461 15.1988L17.5321 15.2367L17.5178 15.2746L17.503 15.3123L17.4879 15.3499L17.4722 15.3874L17.4562 15.4249L17.4398 15.4622L17.4229 15.4994L17.4056 15.5365L17.3879 15.5734L17.3698 15.6103L17.3513 15.647L17.3323 15.6836L17.3129 15.72L17.2931 15.7562L17.273 15.7924L17.2524 15.8284L17.2314 15.8642L17.21 15.8999L17.1882 15.9353L17.1659 15.9707L17.1434 16.0058L17.1203 16.0407L17.0969 16.0756L17.0731 16.1101L17.0488 16.1446L17.0242 16.1787L16.9992 16.2127L16.9738 16.2466L16.948 16.2801L16.9218 16.3135L16.8952 16.3467L16.8683 16.3796L16.841 16.4123L16.8133 16.4448L16.7852 16.4771L16.7566 16.5091L16.7278 16.5408L16.6986 16.5724L16.669 16.6036L16.639 16.6346L16.6087 16.6654L16.578 16.6959L16.5469 16.7261L16.5156 16.7561L16.4837 16.7858L16.4516 16.8152L16.4192 16.8443L16.3863 16.8732L16.3532 16.9018L16.3197 16.93L16.2858 16.9579L16.2516 16.9856L16.217 17.013L16.1822 17.04L16.147 17.0667L16.1115 17.0932L16.0757 17.1193L16.0395 17.1451L16.003 17.1705L15.9663 17.1957L15.9292 17.2204L15.8918 17.2449L15.8541 17.269L15.816 17.2928L15.7777 17.3162L15.7391 17.3393L15.7002 17.362L15.6611 17.3844L15.6216 17.4064L15.5818 17.428L15.5418 17.4493L15.5015 17.4702L15.461 17.4908L15.4201 17.5109L15.3791 17.5307L15.3377 17.5501L15.2961 17.5691L15.2542 17.5877L15.2121 17.6059L15.1698 17.6238L15.1272 17.6412L15.0844 17.6582L15.0413 17.6748L14.998 17.6911L14.9545 17.7069L14.9108 17.7223L14.8669 17.7373L14.8228 17.7519L14.7784 17.7661L14.7339 17.7797L14.6891 17.7931L14.6442 17.806L14.5991 17.8184L14.5538 17.8305L14.5083 17.8421L14.4626 17.8533L14.4168 17.8639L14.3708 17.8743L14.3246 17.8841L14.2783 17.8935L14.2318 17.9024L14.1852 17.9109L14.1384 17.919L14.0915 17.9266L14.0445 17.9338L13.9973 17.9404L13.95 17.9467L13.9026 17.9525L13.8551 17.9578L13.8074 17.9626L13.7597 17.9671L13.7119 17.9709L13.6639 17.9744L13.6158 17.9774L13.5678 17.9799L13.5196 17.982L13.4713 17.9836L13.4229 17.9846L13.3745 17.9853L13.326 17.9854L13.2775 17.9851L13.2289 17.9843L13.1803 17.983L13.1316 17.9813L13.0829 17.979L13.0342 17.9762L12.9854 17.9731L12.9366 17.9694L12.8878 17.9652L12.839 17.9605L12.7902 17.9554L12.7414 17.9497L12.6926 17.9436L12.6438 17.9369L12.595 17.9299L12.5462 17.9223L12.4975 17.9142L12.4488 17.9056L12.4002 17.8966L12.3515 17.8871L12.303 17.877L12.2544 17.8665L12.206 17.8554L12.1576 17.8439L12.1092 17.832L12.0609 17.8195L12.0128 17.8065L11.9646 17.7931L11.9167 17.7791L11.8687 17.7647L11.8209 17.7498L11.7732 17.7344L11.7256 17.7185L11.6781 17.7021L11.6308 17.6852L11.5835 17.6679L11.5364 17.6501L11.4894 17.6318L11.4426 17.6129L11.3959 17.5937L11.3494 17.5739L11.3031 17.5537L11.2568 17.533L11.2108 17.5118L11.1649 17.4901L11.1192 17.468L11.0738 17.4454L11.0285 17.4223L10.9834 17.3988L10.9385 17.3748L10.8937 17.3503L10.8493 17.3253L10.8049 17.2999L10.7609 17.274L10.717 17.2477L10.6735 17.2209L10.6301 17.1936L10.5869 17.1659L10.544 17.1378L10.5014 17.1091L10.4591 17.0801L10.4169 17.0506L10.3751 17.0206L10.3335 16.9902L10.2922 16.9594L10.2512 16.9281L10.2105 16.8964L10.17 16.8643L10.1299 16.8317L10.09 16.7987L10.0505 16.7652L10.0113 16.7314L9.97236 16.6971L9.93377 16.6624L9.8955 16.6273L9.85754 16.5918L9.81997 16.5559L9.78265 16.5196L9.74577 16.4828L9.7092 16.4457L9.67295 16.4081L9.63709 16.3703L9.6016 16.3319L9.56649 16.2932L9.5317 16.2541L9.49735 16.2146L9.46331 16.1748L9.42966 16.1346L9.39645 16.0939L9.36362 16.053L9.33117 16.0117L9.29909 15.97L9.26746 15.9279L9.23628 15.8856L9.20547 15.8428L9.17504 15.7997L9.14506 15.7562L9.11552 15.7125L9.08642 15.6684L9.05776 15.6239L9.02948 15.5792L9.00171 15.5341L8.97432 15.4887L8.94744 15.443L8.92099 15.3969L8.89499 15.3506L8.86944 15.304L8.84439 15.2571L8.81978 15.2098L8.79561 15.1623L8.77196 15.1146L8.7488 15.0664L8.72609 15.0181L8.70389 14.9695L8.68219 14.9206L8.66094 14.8714L8.64019 14.8221L8.61994 14.7724L8.60021 14.7225L8.58098 14.6723L8.56231 14.6219L8.5441 14.5713L8.52638 14.5205L8.50918 14.4694L8.49254 14.4181L8.47641 14.3666L8.46078 14.3149L8.44566 14.263L8.43112 14.2109L8.41713 14.1586L8.4036 14.1061L8.39069 14.0534L8.37829 14.0006L8.3664 13.9475L8.35508 13.8943L8.34432 13.8409L8.33408 13.7874L8.3244 13.7338L8.31529 13.6799L8.30675 13.626L8.29871 13.5719L8.29125 13.5177L8.28442 13.4633L8.27809 13.4089L8.27233 13.3542L8.26715 13.2996L8.26253 13.2448L8.25848 13.1899L8.255 13.1349L8.25209 13.0798L8.24975 13.0247L8.24798 12.9694L8.24684 12.9141L8.24627 12.8588L8.24621 12.8034L8.24678 12.7479L8.24798 12.6924L8.24969 12.6368L8.25203 12.5812L8.25494 12.5256L8.25842 12.4699L8.26247 12.4143L8.26715 12.3586L8.2724 12.3029L8.27822 12.2472L8.28467 12.1915L8.29169 12.1358L8.29928 12.0802L8.30751 12.0246L8.3163 11.9689L8.32573 11.9134L8.33566 11.8578L8.34622 11.8023L8.35742 11.7469L8.36918 11.6915L8.38152 11.6362L8.39442 11.5809L8.40796 11.5258L8.42207 11.4707L8.43681 11.4157L8.45212 11.3608L8.468 11.306L8.48444 11.2513L8.50152 11.1967L8.51917 11.1422L8.53739 11.0878L8.55624 11.0336L8.57566 10.9795L8.59565 10.9256L8.61621 10.8717L8.6374 10.8181L8.65916 10.7646L8.68149 10.7113L8.70439 10.6581L8.72786 10.6051L8.75197 10.5523L8.77657 10.4997L8.80181 10.4472L8.82756 10.3951L8.85394 10.343L8.88082 10.2912L8.90834 10.2396L8.93637 10.1883L8.96502 10.1371L8.99418 10.0862L9.02392 10.0355L9.05422 9.98512L9.08509 9.93494L9.11646 9.885L9.14847 9.83538L9.18099 9.78594L9.21401 9.73681L9.2476 9.688L9.28176 9.63944L9.31643 9.59119L9.35166 9.54325L9.3874 9.49556L9.42365 9.44819L9.46047 9.40119L9.49779 9.35444L9.53568 9.30806L9.57408 9.26194L9.61292 9.21625L9.65233 9.17081L9.69225 9.12575L9.73267 9.08106L9.7736 9.03669L9.81503 8.99275L9.85698 8.94913L9.89942 8.90587L9.94231 8.863L9.98571 8.8205L10.0296 8.77838L10.074 8.73669L10.1188 8.69537L10.1641 8.65444L10.2098 8.61394L10.2561 8.57381L10.3028 8.53419L10.35 8.49487L10.3976 8.45606L10.4456 8.41769L10.4941 8.37969L10.543 8.34219L10.5924 8.30513L10.6422 8.2685L10.6924 8.23231L10.7431 8.19662L10.7942 8.16138L10.8457 8.12656L10.8976 8.09225L10.9498 8.05844L11.0025 8.02513L11.0557 7.99225L11.1091 7.95988L11.163 7.928L11.2172 7.89662L11.2719 7.86575L11.3269 7.83537L11.3822 7.8055L11.4379 7.77619L11.494 7.74737L11.5504 7.71906L11.6072 7.69131L11.6643 7.66406L11.7217 7.63737L11.7795 7.61119L11.8376 7.58556L11.8959 7.5605L11.9547 7.53594L12.0137 7.51194L12.073 7.48856L12.1327 7.46569L12.1926 7.44338L12.2527 7.42163L12.3132 7.4005L12.374 7.37988L12.435 7.35987L12.4963 7.34044L12.5578 7.32156L12.6196 7.30331L12.6816 7.28562L12.7438 7.26856L12.8063 7.25206L12.869 7.23612L12.9319 7.22081L12.9951 7.20613L13.0585 7.19206L13.122 7.17856L13.1857 7.16569L13.2496 7.15344L13.2817 7.14756ZM14.0673 11.6852L13.3382 11.8574L13.2954 8.28894L13.261 8.29656L13.2093 8.30863L13.1576 8.32119L13.1063 8.33419L13.055 8.34769L13.0041 8.36169L12.9532 8.37625L12.9028 8.39112L12.8522 8.40662L12.8023 8.42244L12.7523 8.43888L12.7026 8.45575L12.6531 8.47306L12.6038 8.49081L12.555 8.509L12.5062 8.52775L12.4577 8.54688L12.4095 8.56644L12.3613 8.58656L12.3138 8.60694L12.2663 8.62794L12.2193 8.64925L12.1723 8.67113L12.1257 8.69331L12.0793 8.716L12.0333 8.73906L11.9876 8.76256L11.9422 8.7865L11.8971 8.81081L11.8522 8.83556L11.8077 8.86075L11.7637 8.88625L11.7196 8.91231L11.6761 8.93863L11.6329 8.96538L11.59 8.9925L11.5474 9.02006L11.5052 9.048L11.4633 9.07631L11.4218 9.10494L11.3806 9.13394L11.3397 9.16337L11.2992 9.19319L11.2591 9.22331L11.2193 9.25381L11.18 9.28456L11.141 9.31575L11.1023 9.34731L11.064 9.37925L11.0261 9.41138L10.9886 9.44394L10.9515 9.47675L10.9147 9.50994L10.8784 9.5435L10.8424 9.57731L10.8069 9.61138L10.7716 9.64587L10.7369 9.68056L10.7026 9.71562L10.6687 9.75088L10.635 9.78662L10.6019 9.82244L10.5692 9.85863L10.5369 9.89512L10.5051 9.93175L10.4736 9.96881L10.4426 10.0059L10.4119 10.0436L10.3818 10.0812L10.352 10.1193L10.3228 10.1576L10.2939 10.1961L10.2654 10.2348L10.2375 10.2737L10.2099 10.3129L10.1828 10.3523L10.1561 10.392L10.1299 10.4317L10.1042 10.4718L10.0788 10.5121L10.054 10.5524L10.0295 10.5932L10.0056 10.6339L9.9821 10.6749L9.95901 10.7161L9.93649 10.7574L9.91435 10.7989L9.89272 10.8406L9.87146 10.8826L9.85078 10.9244L9.83047 10.9667L9.81067 11.0089L9.79138 11.0514L9.77246 11.0939L9.75405 11.1367L9.73615 11.1794L9.71869 11.2224L9.70174 11.2655L9.68516 11.3087L9.66916 11.3519L9.6536 11.3953L9.63848 11.4388L9.62387 11.4824L9.6097 11.526L9.59603 11.5698L9.58281 11.6136L9.57016 11.6574L9.55789 11.7014L9.54606 11.7455L9.5348 11.7896L9.52398 11.8337L9.51361 11.8779L9.50374 11.9221L9.49437 11.9664L9.48545 12.0107L9.47698 12.055L9.46901 12.0994L9.46154 12.1438L9.45452 12.1881L9.44794 12.2326L9.44187 12.2769L9.4363 12.3214L9.43118 12.3658L9.4265 12.4102L9.42232 12.4547L9.41859 12.499L9.41536 12.5434L9.41258 12.5877L9.41024 12.632L9.40841 12.6762L9.40701 12.7204L9.40613 12.7647L9.40562 12.8088L9.40569 12.8529L9.40613 12.8969L9.40708 12.9409L9.40847 12.9848L9.4103 13.0286L9.41258 13.0723L9.41536 13.1159L9.41859 13.1595L9.42226 13.203L9.42637 13.2464L9.43093 13.2897L9.43592 13.3328L9.44136 13.376L9.44725 13.4189L9.45364 13.4618L9.4604 13.5045L9.46762 13.5471L9.47527 13.5897L9.48337 13.632L9.49191 13.6742L9.50083 13.7162L9.51025 13.7583L9.52006 13.8L9.5303 13.8417L9.54093 13.8831L9.55207 13.9245L9.56352 13.9656L9.57541 14.0066L9.58774 14.0474L9.60046 14.0881L9.61362 14.1285L9.62716 14.1687L9.64114 14.2089L9.6555 14.2488L9.67023 14.2884L9.68535 14.3279L9.70092 14.3673L9.71686 14.4063L9.73318 14.4452L9.74981 14.4838L9.76696 14.5223L9.78442 14.5606L9.80226 14.5986L9.82047 14.6363L9.83901 14.6738L9.85805 14.7113L9.87728 14.7483L9.89696 14.7851L9.91701 14.8217L9.93744 14.858L9.95819 14.8941L9.97926 14.93L10.0007 14.9655L10.0225 15.0009L10.0446 15.0359L10.0671 15.0707L10.0899 15.1052L10.113 15.1395L10.1365 15.1736L10.1602 15.2071L10.1843 15.2406L10.2087 15.2738L10.2334 15.3066L10.2585 15.3392L10.2838 15.3714L10.3094 15.4034L10.3353 15.4351L10.3616 15.4665L10.388 15.4975L10.4149 15.5283L10.442 15.5588L10.4693 15.5889L10.4971 15.6188L10.5249 15.6483L10.5531 15.6776L10.5816 15.7064L10.6103 15.735L10.6393 15.7633L10.6685 15.7912L10.698 15.8188L10.7277 15.8461L10.7577 15.873L10.788 15.8996L10.8184 15.9259L10.8491 15.9518L10.8799 15.9774L10.9111 16.0027L10.9424 16.0276L10.9741 16.0522L11.0058 16.0764L11.0378 16.1003L11.07 16.1238L11.1024 16.147L11.1349 16.1698L11.1677 16.1923L11.2007 16.2144L11.2338 16.2362L11.2671 16.2576L11.3005 16.2786L11.3343 16.2994L11.3681 16.3196L11.4021 16.3396L11.4363 16.3593L11.4705 16.3784L11.5049 16.3973L11.5397 16.4159L11.5744 16.434L11.6093 16.4517L11.6442 16.4691L11.6795 16.4862L11.7146 16.5028L11.7501 16.5191L11.7856 16.5351L11.8212 16.5506L11.857 16.5658L11.8928 16.5806L11.9287 16.595L11.9648 16.6091L12.0009 16.6227L12.0372 16.636L12.0734 16.6489L12.1099 16.6615L12.1463 16.6736L12.1828 16.6854L12.2194 16.6969L12.2561 16.7079L12.2928 16.7186L12.3295 16.7289L12.3664 16.7388L12.4033 16.7483L12.4402 16.7574L12.4771 16.7663L12.514 16.7746L12.5511 16.7826L12.5881 16.7903L12.6252 16.7976L12.6623 16.8045L12.6993 16.811L12.7365 16.8172L12.7736 16.8229L12.8107 16.8284L12.8477 16.8334L12.8849 16.838L12.9219 16.8423L12.9591 16.8463L12.9961 16.8498L13.0332 16.8529L13.0702 16.8558L13.1072 16.8582L13.1442 16.8603L13.1811 16.8619L13.2179 16.8633L13.2548 16.8643L13.2915 16.8649L13.3282 16.8651L13.3649 16.865L13.4014 16.8646L13.4381 16.8637L13.4746 16.8625L13.5109 16.861L13.5472 16.8591L13.5836 16.8568L13.6196 16.8542L13.6557 16.8512L13.6917 16.8479L13.7276 16.8443L13.7634 16.8403L13.799 16.8359L13.8347 16.8312L13.8701 16.8262L13.9054 16.8208L13.9408 16.8151L13.9759 16.8091L14.0109 16.8027L14.0458 16.7959L14.0806 16.7889L14.1151 16.7815L14.1495 16.7738L14.184 16.7657L14.2182 16.7574L14.2522 16.7488L14.2861 16.7397L14.3198 16.7304L14.3536 16.7208L14.387 16.7108L14.4201 16.7006L14.4534 16.6899L14.4863 16.6791L14.519 16.6679L14.5516 16.6564L14.584 16.6446L14.6163 16.6325L14.6484 16.6201L14.6802 16.6074L14.7119 16.5945L14.7434 16.5812L14.7748 16.5676L14.8058 16.5538L14.8368 16.5397L14.8675 16.5253L14.8979 16.5106L14.9283 16.4957L14.9583 16.4805L14.9882 16.465L15.0178 16.4492L15.0473 16.4332L15.0764 16.4169L15.1055 16.4004L15.1342 16.3836L15.1627 16.3665L15.191 16.3492L15.2191 16.3316L15.2469 16.3139L15.2745 16.2958L15.3019 16.2776L15.329 16.259L15.3559 16.2402L15.3825 16.2213L15.4088 16.2021L15.435 16.1826L15.4608 16.1629L15.4865 16.1431L15.5119 16.1229L15.5369 16.1027L15.5618 16.0822L15.5864 16.0614L15.6106 16.0405L15.6347 16.0194L15.6585 15.998L15.6821 15.9765L15.7052 15.9548L15.7282 15.9329L15.751 15.9107L15.7734 15.8885L15.7956 15.8661L15.8174 15.8434L15.8389 15.8206L15.8603 15.7976L15.8813 15.7745L15.9021 15.7511L15.9225 15.7276L15.9426 15.7041L15.9626 15.6802L15.9821 15.6563L16.0015 15.6322L16.0205 15.608L16.0392 15.5836L16.0576 15.5591L16.0757 15.5345L16.0936 15.5096L16.1112 15.4847L16.1284 15.4597L16.1453 15.4345L16.162 15.4093L16.1783 15.3839L16.1943 15.3584L16.2101 15.3328L16.2255 15.307L16.2407 15.2812L16.2555 15.2552L16.2701 15.2292L16.2843 15.2031L16.2982 15.1769L16.3118 15.1506L16.3252 15.1242L16.3382 15.0978L16.3509 15.0712L16.3633 15.0446L16.3754 15.0179L16.3871 14.9913L16.3987 14.9644L16.4098 14.9376L16.4207 14.9105L16.4312 14.8837L16.4416 14.8564L16.4514 14.8296L16.4611 14.8024L16.4705 14.7751L16.4794 14.748L16.4882 14.7207L16.4966 14.6936L16.5047 14.6661L16.5125 14.6389L16.5201 14.6114L16.5272 14.5843L16.5341 14.5568L16.5407 14.5292L16.5469 14.5019L16.5529 14.4747L16.5586 14.4471L16.564 14.4198L16.569 14.3922L16.5738 14.3649L16.5783 14.3376L16.5824 14.3101L16.5863 14.2827L16.5898 14.2553L16.5931 14.2281L16.5961 14.2009L16.5988 14.1734L16.6012 14.1463L16.6032 14.119L16.605 14.0918L16.6065 14.0647L16.6077 14.0376L16.6086 14.0107L16.6093 13.9836L16.6096 13.9565L16.6097 13.9297L16.6094 13.9029L16.6089 13.8761L16.6081 13.8494L16.607 13.8226L16.6056 13.7963L16.604 13.7694L16.6021 13.7432L16.5999 13.7169L16.5974 13.6904L16.5946 13.6643L16.5917 13.6383L16.5883 13.612L16.5848 13.5863L16.5809 13.5603L16.5769 13.5347L16.5724 13.5089L16.5678 13.4833L16.5629 13.4579L16.5578 13.4326L16.5524 13.4072L16.5467 13.3822L16.5408 13.3571L16.5346 13.3323L16.5282 13.3076L16.5214 13.2827L16.5146 13.2583L16.5074 13.2337L16.5 13.2095L16.4923 13.1853L16.4844 13.1613L16.4763 13.1374L16.4679 13.1135L16.4593 13.09L16.4505 13.0666L16.4414 13.0431L16.4321 13.0199L16.4225 12.9967L16.4128 12.974L16.4028 12.9511L16.3927 12.9285L16.3822 12.9061L16.3716 12.8837L16.3608 12.8616L16.3497 12.8396L16.3384 12.8177L16.327 12.7961L16.3153 12.7746L16.3035 12.7533L16.2914 12.7321L16.279 12.7111L16.2666 12.6903L16.254 12.6697L16.2411 12.6491L16.2281 12.6289L16.2148 12.6088L16.2014 12.5889L16.1878 12.5691L16.1741 12.5496L16.1601 12.5301L16.146 12.5109L16.1317 12.4919L16.1172 12.4731L16.1027 12.4545L16.0878 12.436L16.0729 12.4178L16.0578 12.3997L16.0425 12.3819L16.0271 12.3642L16.0116 12.3468L15.9958 12.3295L15.9799 12.3124L15.9639 12.2955L15.9478 12.2789L15.9315 12.2624L15.915 12.2461L15.8985 12.2301L15.8818 12.2143L15.8651 12.1987L15.848 12.1832L15.831 12.168L15.8138 12.1529L15.7966 12.1382L15.7791 12.1236L15.7616 12.1093L15.7439 12.0951L15.7262 12.0811L15.7084 12.0674L15.6904 12.0538L15.6724 12.0406L15.6542 12.0274L15.6359 12.0146L15.6177 12.0019L15.5993 11.9894L15.5808 11.9773L15.5622 11.9653L15.5435 11.9534L15.5248 11.9419L15.5059 11.9305L15.487 11.9194L15.4681 11.9085L15.4491 11.8978L15.4299 11.8873L15.4108 11.8771L15.3916 11.867L15.3723 11.8572L15.3531 11.8476L15.3336 11.8382L15.3143 11.8291L15.2948 11.8202L15.2753 11.8114L15.2558 11.8029L15.2361 11.7946L15.2166 11.7866L15.1969 11.7788L15.1771 11.7712L15.1575 11.7638L15.1377 11.7566L15.118 11.7497L15.0982 11.7429L15.0784 11.7364L15.0586 11.7301L15.0388 11.724L15.0189 11.7181L14.9992 11.7125L14.9792 11.7071L14.9595 11.7019L14.9396 11.6969L14.9197 11.6921L14.8999 11.6875L14.8801 11.6831L14.8602 11.679L14.8404 11.6751L14.8207 11.6713L14.8009 11.6678L14.7811 11.6645L14.7615 11.6614L14.7416 11.6586L14.722 11.6559L14.7023 11.6534L14.6827 11.6511L14.6632 11.6491L14.6436 11.6472L14.6241 11.6456L14.6046 11.6441L14.5852 11.6429L14.5658 11.6418L14.5464 11.641L14.5273 11.6404L14.508 11.6399L14.4888 11.6396L14.4696 11.6396L14.4506 11.6397L14.4316 11.6401L14.4126 11.6406L14.3937 11.6413L14.375 11.6422L14.3562 11.6433L14.3376 11.6446L14.319 11.646L14.3004 11.6477L14.282 11.6495L14.2635 11.6515L14.2453 11.6537L14.2271 11.6561L14.209 11.6586L14.1909 11.6614L14.173 11.6642L14.1551 11.6673L14.1375 11.6706L14.1197 11.674L14.1022 11.6776L14.0846 11.6813L14.0673 11.6852Z" fill="#ADD8E6"/>
</svg>
