<svg width="16" height="17" viewBox="0 0 16 17" fill="none" xmlns="http://www.w3.org/2000/svg">
<path d="M7.65506 3.24427C7.68326 3.17549 7.73128 3.11665 7.79301 3.07524C7.85474 3.03383 7.92739 3.01172 8.00173 3.01172C8.07606 3.01172 8.14872 3.03383 8.21045 3.07524C8.27218 3.11665 8.3202 3.17549 8.3484 3.24427L9.76506 6.6516C9.79158 6.71536 9.83517 6.77056 9.89104 6.81114C9.94691 6.85172 10.0129 6.8761 10.0817 6.8816L13.7604 7.17627C14.0931 7.20294 14.2277 7.61827 13.9744 7.83494L11.1717 10.2363C11.1194 10.2811 11.0803 10.3394 11.0589 10.4049C11.0375 10.4704 11.0346 10.5405 11.0504 10.6076L11.9071 14.1976C11.9243 14.2696 11.9198 14.3451 11.8941 14.4146C11.8684 14.4841 11.8227 14.5444 11.7628 14.5879C11.7029 14.6314 11.6314 14.6562 11.5574 14.6591C11.4834 14.662 11.4102 14.6429 11.3471 14.6043L8.19706 12.6809C8.13822 12.6451 8.07064 12.6261 8.00173 12.6261C7.93282 12.6261 7.86524 12.6451 7.80639 12.6809L4.6564 14.6049C4.59323 14.6436 4.52003 14.6627 4.44603 14.6598C4.37204 14.6568 4.30056 14.6321 4.24064 14.5885C4.18072 14.545 4.13504 14.4847 4.10936 14.4153C4.08369 14.3458 4.07918 14.2703 4.0964 14.1983L4.95306 10.6076C4.96895 10.5405 4.96603 10.4704 4.94462 10.4049C4.92321 10.3394 4.88415 10.281 4.83173 10.2363L2.02906 7.83494C1.97294 7.78668 1.93233 7.7229 1.91236 7.65162C1.89239 7.58035 1.89393 7.50476 1.91681 7.43437C1.93968 7.36397 1.98285 7.30191 2.04091 7.25598C2.09896 7.21006 2.16929 7.18232 2.24306 7.17627L5.92173 6.8816C5.99056 6.8761 6.05654 6.85172 6.11241 6.81114C6.16828 6.77056 6.21188 6.71536 6.23839 6.6516L7.65506 3.24427Z" stroke="#EBB700" stroke-width="1.5" stroke-linecap="round" stroke-linejoin="round"/>
</svg>
