<svg width="20" height="21" viewBox="0 0 20 21" fill="none" xmlns="http://www.w3.org/2000/svg">
<path fill-rule="evenodd" clip-rule="evenodd" d="M7.76513 1.18419C8.04647 0.869988 8.39091 0.618643 8.77596 0.446566C9.16101 0.274488 9.57803 0.185547 9.99978 0.185547C10.4215 0.185547 10.8385 0.274488 11.2236 0.446566C11.6087 0.618643 11.9531 0.869988 12.2344 1.18419L12.9343 1.96607C13.0343 2.07796 13.1583 2.1659 13.2969 2.22336C13.4355 2.28083 13.5853 2.30634 13.7352 2.29802L14.785 2.24003C15.206 2.21691 15.6271 2.2828 16.0209 2.4334C16.4147 2.584 16.7724 2.81593 17.0705 3.11405C17.3686 3.41218 17.6005 3.76981 17.7512 4.16361C17.9018 4.55742 17.9676 4.97854 17.9445 5.39953L17.8865 6.44936C17.8784 6.59904 17.9039 6.74865 17.9614 6.8871C18.0189 7.02556 18.1067 7.14932 18.2185 7.24923L19.0014 7.94912C19.3157 8.23046 19.5672 8.57496 19.7394 8.96011C19.9116 9.34525 20.0006 9.76239 20.0006 10.1843C20.0006 10.6061 19.9116 11.0233 19.7394 11.4084C19.5672 11.7936 19.3157 12.1381 19.0014 12.4194L18.2185 13.1193C18.1066 13.2193 18.0187 13.3432 17.9612 13.4819C17.9037 13.6205 17.8782 13.7703 17.8865 13.9202L17.9445 14.97C17.9676 15.391 17.9018 15.8121 17.7512 16.2059C17.6005 16.5997 17.3686 16.9574 17.0705 17.2555C16.7724 17.5536 16.4147 17.7855 16.0209 17.9361C15.6271 18.0867 15.206 18.1526 14.785 18.1295L13.7352 18.0715C13.5855 18.0633 13.4359 18.0889 13.2974 18.1464C13.159 18.2039 13.0352 18.2917 12.9353 18.4035L12.2354 19.1863C11.9541 19.5007 11.6096 19.7522 11.2244 19.9244C10.8393 20.0966 10.4222 20.1855 10.0003 20.1855C9.5784 20.1855 9.16126 20.0966 8.77612 19.9244C8.39097 19.7522 8.04648 19.5007 7.76513 19.1863L7.06524 18.4035C6.96522 18.2916 6.8413 18.2036 6.70266 18.1462C6.56402 18.0887 6.41422 18.0632 6.26437 18.0715L5.21454 18.1295C4.79356 18.1526 4.37243 18.0867 3.97863 17.9361C3.58482 17.7855 3.22719 17.5536 2.92907 17.2555C2.63094 16.9574 2.39901 16.5997 2.24841 16.2059C2.09781 15.8121 2.03192 15.391 2.05504 14.97L2.11303 13.9202C2.1212 13.7705 2.09561 13.6209 2.03815 13.4824C1.98069 13.344 1.89284 13.2202 1.78108 13.1203L0.999207 12.4204C0.684836 12.1391 0.433349 11.7946 0.261172 11.4094C0.0889947 11.0243 0 10.6071 0 10.1853C0 9.76339 0.0889947 9.34625 0.261172 8.96111C0.433349 8.57596 0.684836 8.23147 0.999207 7.95012L1.78108 7.25023C1.89297 7.15021 1.98091 7.02629 2.03837 6.88765C2.09584 6.74901 2.12135 6.59921 2.11303 6.44936L2.05504 5.39953C2.03192 4.97854 2.09781 4.55742 2.24841 4.16361C2.39901 3.76981 2.63094 3.41218 2.92907 3.11405C3.22719 2.81593 3.58482 2.584 3.97863 2.4334C4.37243 2.2828 4.79356 2.21691 5.21454 2.24003L6.26437 2.29802C6.41405 2.30619 6.56366 2.2806 6.70211 2.22314C6.84057 2.16568 6.96433 2.07782 7.06425 1.96607L7.76513 1.18419ZM13.7062 6.47836C13.8936 6.66585 13.9989 6.92012 13.9989 7.18524C13.9989 7.45037 13.8936 7.70463 13.7062 7.89213L7.70714 13.8912C7.51857 14.0733 7.26601 14.1741 7.00385 14.1718C6.7417 14.1695 6.49093 14.0644 6.30555 13.879C6.12017 13.6936 6.01502 13.4428 6.01274 13.1807C6.01046 12.9185 6.11124 12.666 6.29337 12.4774L12.2924 6.47836C12.4799 6.29091 12.7342 6.18562 12.9993 6.18562C13.2644 6.18562 13.5187 6.29091 13.7062 6.47836ZM7.50018 6.1854C7.10241 6.1854 6.72094 6.34341 6.43968 6.62467C6.15842 6.90593 6.00041 7.2874 6.00041 7.68516V7.69516C6.00041 8.09292 6.15842 8.4744 6.43968 8.75566C6.72094 9.03691 7.10241 9.19493 7.50018 9.19493H7.51017C7.90794 9.19493 8.28941 9.03691 8.57067 8.75566C8.85193 8.4744 9.00994 8.09292 9.00994 7.69516V7.68516C9.00994 7.2874 8.85193 6.90593 8.57067 6.62467C8.28941 6.34341 7.90794 6.1854 7.51017 6.1854H7.50018ZM12.4994 11.1846C12.1016 11.1846 11.7201 11.3426 11.4389 11.6239C11.1576 11.9051 10.9996 12.2866 10.9996 12.6844V12.6944C10.9996 13.0921 11.1576 13.4736 11.4389 13.7549C11.7201 14.0361 12.1016 14.1941 12.4994 14.1941H12.5094C12.9071 14.1941 13.2886 14.0361 13.5699 13.7549C13.8511 13.4736 14.0091 13.0921 14.0091 12.6944V12.6844C14.0091 12.2866 13.8511 11.9051 13.5699 11.6239C13.2886 11.3426 12.9071 11.1846 12.5094 11.1846H12.4994Z" fill="#C4A484"/>
</svg>
