<svg width="19" height="21" viewBox="0 0 19 21" fill="none" xmlns="http://www.w3.org/2000/svg">
<path d="M18.9461 7.03137C18.4625 12.432 16.3098 16.886 11.6869 20.0087C10.1663 21.037 8.81761 21.072 7.28247 20.0379C2.19639 16.6151 0.0990416 11.6747 0 5.76421C0 5.14084 0.690375 4.21742 1.29919 3.92321C3.61645 2.80849 5.98872 1.81194 8.40688 0.937401C9.1824 0.719142 10.0075 0.755901 10.7606 1.04226C12.7997 1.77342 14.8038 2.6648 16.8167 3.50374C18.9169 4.38055 19.1238 4.72719 18.9461 7.03137ZM8.14762 12.6942C7.23003 11.7067 6.47848 10.8852 5.70945 10.0725C4.94042 9.2598 4.45104 9.83366 3.88592 10.3638C3.3208 10.894 3.21011 11.3542 3.81892 11.9427C4.94042 13.0176 6.05901 14.1012 7.11059 15.2431C7.8738 16.0733 8.47096 16.0995 9.27203 15.2693C11.2966 13.1719 13.3677 11.1212 15.4563 9.08503C16.1467 8.41213 16.4642 7.89652 15.6049 7.0605C14.7455 6.22447 14.2416 6.46334 13.5658 7.18285C11.8471 8.97142 10.0935 10.7163 8.14762 12.6942Z" fill="#C4A484"/>
</svg>
