<svg width="34" height="35" viewBox="0 0 34 35" fill="none" xmlns="http://www.w3.org/2000/svg">
<rect y="0.0273438" width="34" height="34" rx="5" fill="#EDEDED"/>
<path d="M13.0139 16.1163C12.8121 15.7532 12.4955 15.4674 12.1137 15.3037C11.7319 15.1401 11.3066 15.1078 10.9045 15.2121C10.5024 15.3163 10.1463 15.5511 9.89214 15.8796C9.63793 16.2081 9.5 16.6117 9.5 17.0271C9.5 17.4425 9.63793 17.8461 9.89214 18.1746C10.1463 18.5031 10.5024 18.7379 10.9045 18.8421C11.3066 18.9463 11.7319 18.9141 12.1137 18.7504C12.4955 18.5868 12.8121 18.301 13.0139 17.9379M13.0139 16.1163C13.1639 16.3863 13.2497 16.6963 13.2497 17.0271C13.2497 17.3579 13.1639 17.6688 13.0139 17.9379M13.0139 16.1163L20.9856 11.6879M13.0139 17.9379L20.9856 22.3663M20.9856 11.6879C21.1025 11.908 21.262 12.1026 21.455 12.2604C21.648 12.4181 21.8704 12.5358 22.1094 12.6065C22.3484 12.6772 22.5991 12.6996 22.8468 12.6723C23.0945 12.6451 23.3343 12.5687 23.5522 12.4476C23.77 12.3266 23.9616 12.1634 24.1156 11.9674C24.2696 11.7715 24.3831 11.5468 24.4493 11.3066C24.5154 11.0663 24.5331 10.8152 24.5011 10.5681C24.4691 10.3209 24.3882 10.0826 24.2631 9.86709C24.0165 9.44237 23.6131 9.13137 23.1396 9.00094C22.6661 8.8705 22.1603 8.93104 21.731 9.16955C21.3017 9.40806 20.9831 9.8055 20.8437 10.2764C20.7043 10.7473 20.7552 11.2542 20.9856 11.6879ZM20.9856 22.3663C20.866 22.5816 20.7899 22.8183 20.7618 23.063C20.7337 23.3077 20.7541 23.5556 20.8217 23.7924C20.8894 24.0292 21.0031 24.2504 21.1562 24.4433C21.3094 24.6362 21.499 24.7971 21.7143 24.9167C21.9296 25.0363 22.1664 25.1123 22.4111 25.1404C22.6558 25.1685 22.9036 25.1482 23.1405 25.0805C23.3773 25.0128 23.5985 24.8992 23.7914 24.746C23.9843 24.5929 24.1451 24.4032 24.2647 24.1879C24.5063 23.7531 24.5652 23.2401 24.4286 22.7618C24.2919 22.2835 23.9708 21.8791 23.536 21.6375C23.1011 21.3959 22.5881 21.337 22.1099 21.4737C21.6316 21.6103 21.2271 21.9314 20.9856 22.3663Z" stroke="#818181" stroke-width="1.5" stroke-linecap="round" stroke-linejoin="round"/>
</svg>
